<svg width="973" height="683" viewBox="0 0 973 683" fill="none" xmlns="http://www.w3.org/2000/svg">
<g opacity="0.6" filter="url(#filter0_d_120_69)">
<path d="M903 354.5C903 503.341 714.169 506.5 564.5 506.5C414.831 506.5 70 701.841 70 553C70.0001 435.5 147.331 66.5 297 66.5C446.669 66.5 903 205.659 903 354.5Z" fill="#2DAFAF"/>
<path d="M201.742 205.783C201.458 203.262 200.286 201.309 198.227 199.924C196.167 198.521 193.575 197.82 190.45 197.82C188.212 197.82 186.277 198.175 184.643 198.885C183.01 199.578 181.74 200.537 180.835 201.762C179.947 202.969 179.503 204.345 179.503 205.89C179.503 207.186 179.805 208.305 180.409 209.246C181.03 210.187 181.838 210.977 182.832 211.616C183.844 212.238 184.928 212.761 186.082 213.188C187.236 213.596 188.346 213.933 189.411 214.2L194.738 215.585C196.478 216.011 198.262 216.588 200.091 217.316C201.92 218.044 203.615 219.002 205.178 220.192C206.74 221.382 208.001 222.855 208.96 224.613C209.936 226.371 210.425 228.475 210.425 230.925C210.425 234.015 209.626 236.758 208.028 239.155C206.447 241.552 204.148 243.443 201.13 244.828C198.129 246.213 194.498 246.906 190.237 246.906C186.153 246.906 182.619 246.257 179.636 244.961C176.653 243.665 174.319 241.827 172.632 239.448C170.945 237.051 170.013 234.21 169.835 230.925H178.092C178.251 232.896 178.891 234.539 180.009 235.853C181.146 237.149 182.593 238.116 184.35 238.756C186.126 239.377 188.07 239.688 190.183 239.688C192.509 239.688 194.578 239.324 196.389 238.596C198.218 237.85 199.656 236.82 200.703 235.506C201.751 234.175 202.275 232.621 202.275 230.846C202.275 229.23 201.813 227.907 200.89 226.877C199.984 225.847 198.75 224.995 197.188 224.32C195.643 223.646 193.894 223.051 191.941 222.536L185.496 220.778C181.128 219.588 177.665 217.839 175.109 215.531C172.57 213.223 171.3 210.169 171.3 206.369C171.3 203.227 172.152 200.483 173.857 198.14C175.561 195.796 177.87 193.976 180.782 192.68C183.694 191.366 186.978 190.709 190.636 190.709C194.329 190.709 197.587 191.357 200.411 192.653C203.251 193.949 205.489 195.734 207.122 198.006C208.756 200.261 209.608 202.854 209.679 205.783H201.742ZM245.534 229.034V205.091H253.524V246H245.694V238.915H245.268C244.327 241.099 242.818 242.919 240.74 244.375C238.681 245.814 236.115 246.533 233.043 246.533C230.415 246.533 228.089 245.956 226.065 244.801C224.059 243.63 222.479 241.898 221.324 239.608C220.188 237.317 219.62 234.485 219.62 231.112V205.091H227.583V230.153C227.583 232.941 228.356 235.16 229.9 236.811C231.445 238.463 233.452 239.288 235.92 239.288C237.411 239.288 238.894 238.915 240.367 238.17C241.859 237.424 243.093 236.297 244.07 234.787C245.064 233.278 245.552 231.36 245.534 229.034ZM281.456 246.826C277.497 246.826 274.088 245.929 271.229 244.136C268.388 242.325 266.204 239.83 264.677 236.652C263.15 233.473 262.387 229.833 262.387 225.732C262.387 221.577 263.168 217.911 264.73 214.732C266.293 211.536 268.495 209.042 271.336 207.248C274.176 205.455 277.523 204.558 281.376 204.558C284.484 204.558 287.254 205.135 289.686 206.289C292.119 207.426 294.081 209.024 295.572 211.083C297.081 213.143 297.978 215.549 298.262 218.301H290.512C290.086 216.384 289.109 214.732 287.582 213.347C286.073 211.962 284.049 211.27 281.51 211.27C279.29 211.27 277.346 211.856 275.677 213.028C274.026 214.182 272.738 215.833 271.815 217.982C270.892 220.112 270.43 222.634 270.43 225.545C270.43 228.528 270.883 231.103 271.788 233.269C272.694 235.435 273.972 237.113 275.624 238.303C277.293 239.493 279.255 240.087 281.51 240.087C283.019 240.087 284.386 239.812 285.611 239.262C286.854 238.694 287.893 237.886 288.727 236.838C289.58 235.79 290.174 234.53 290.512 233.056H298.262C297.978 235.702 297.117 238.063 295.679 240.141C294.24 242.218 292.314 243.852 289.899 245.041C287.502 246.231 284.688 246.826 281.456 246.826ZM324.01 246.826C320.051 246.826 316.641 245.929 313.783 244.136C310.942 242.325 308.758 239.83 307.231 236.652C305.704 233.473 304.94 229.833 304.94 225.732C304.94 221.577 305.722 217.911 307.284 214.732C308.847 211.536 311.048 209.042 313.889 207.248C316.73 205.455 320.077 204.558 323.93 204.558C327.037 204.558 329.807 205.135 332.24 206.289C334.672 207.426 336.634 209.024 338.126 211.083C339.635 213.143 340.532 215.549 340.816 218.301H333.065C332.639 216.384 331.663 214.732 330.136 213.347C328.627 211.962 326.602 211.27 324.063 211.27C321.844 211.27 319.9 211.856 318.231 213.028C316.579 214.182 315.292 215.833 314.369 217.982C313.445 220.112 312.984 222.634 312.984 225.545C312.984 228.528 313.437 231.103 314.342 233.269C315.248 235.435 316.526 237.113 318.177 238.303C319.846 239.493 321.808 240.087 324.063 240.087C325.573 240.087 326.94 239.812 328.165 239.262C329.408 238.694 330.446 237.886 331.281 236.838C332.133 235.79 332.728 234.53 333.065 233.056H340.816C340.532 235.702 339.671 238.063 338.232 240.141C336.794 242.218 334.868 243.852 332.453 245.041C330.056 246.231 327.242 246.826 324.01 246.826ZM366.963 246.826C362.933 246.826 359.461 245.964 356.55 244.242C353.655 242.502 351.418 240.061 349.838 236.918C348.275 233.757 347.494 230.055 347.494 225.812C347.494 221.621 348.275 217.928 349.838 214.732C351.418 211.536 353.62 209.042 356.443 207.248C359.284 205.455 362.604 204.558 366.404 204.558C368.712 204.558 370.949 204.94 373.116 205.703C375.282 206.467 377.226 207.665 378.948 209.299C380.671 210.933 382.029 213.054 383.023 215.664C384.018 218.257 384.515 221.408 384.515 225.119V227.942H351.995V221.977H376.711C376.711 219.881 376.285 218.026 375.433 216.41C374.58 214.777 373.382 213.489 371.837 212.548C370.31 211.607 368.517 211.137 366.457 211.137C364.22 211.137 362.267 211.687 360.598 212.788C358.947 213.871 357.668 215.292 356.763 217.049C355.875 218.789 355.431 220.68 355.431 222.722V227.383C355.431 230.118 355.91 232.444 356.869 234.361C357.846 236.279 359.204 237.744 360.944 238.756C362.684 239.75 364.717 240.247 367.043 240.247C368.552 240.247 369.928 240.034 371.171 239.608C372.414 239.164 373.488 238.507 374.394 237.637C375.3 236.767 375.992 235.693 376.471 234.414L384.009 235.773C383.405 237.992 382.322 239.936 380.759 241.605C379.215 243.257 377.27 244.544 374.927 245.467C372.601 246.373 369.946 246.826 366.963 246.826ZM424.006 215.078L416.788 216.357C416.486 215.434 416.007 214.555 415.35 213.72C414.71 212.886 413.84 212.202 412.74 211.669C411.639 211.137 410.263 210.87 408.611 210.87C406.356 210.87 404.474 211.376 402.965 212.388C401.456 213.383 400.701 214.67 400.701 216.25C400.701 217.618 401.207 218.718 402.219 219.553C403.231 220.387 404.865 221.071 407.12 221.604L413.619 223.095C417.383 223.965 420.188 225.306 422.035 227.117C423.881 228.928 424.805 231.281 424.805 234.175C424.805 236.625 424.094 238.809 422.674 240.727C421.271 242.626 419.309 244.118 416.788 245.201C414.284 246.284 411.381 246.826 408.079 246.826C403.498 246.826 399.76 245.849 396.866 243.896C393.972 241.925 392.196 239.129 391.539 235.506L399.236 234.335C399.716 236.341 400.701 237.859 402.193 238.889C403.684 239.901 405.628 240.407 408.025 240.407C410.636 240.407 412.722 239.865 414.284 238.782C415.847 237.681 416.628 236.341 416.628 234.761C416.628 233.482 416.149 232.408 415.19 231.538C414.249 230.668 412.802 230.011 410.849 229.567L403.924 228.049C400.106 227.179 397.283 225.794 395.454 223.894C393.643 221.994 392.738 219.588 392.738 216.676C392.738 214.262 393.413 212.149 394.762 210.338C396.111 208.527 397.976 207.115 400.355 206.103C402.734 205.073 405.46 204.558 408.532 204.558C412.953 204.558 416.433 205.517 418.972 207.435C421.511 209.335 423.189 211.882 424.006 215.078ZM464.216 215.078L456.998 216.357C456.696 215.434 456.217 214.555 455.56 213.72C454.92 212.886 454.05 212.202 452.95 211.669C451.849 211.137 450.473 210.87 448.821 210.87C446.566 210.87 444.684 211.376 443.175 212.388C441.666 213.383 440.911 214.67 440.911 216.25C440.911 217.618 441.417 218.718 442.429 219.553C443.441 220.387 445.075 221.071 447.33 221.604L453.828 223.095C457.593 223.965 460.398 225.306 462.245 227.117C464.091 228.928 465.015 231.281 465.015 234.175C465.015 236.625 464.304 238.809 462.884 240.727C461.481 242.626 459.519 244.118 456.998 245.201C454.494 246.284 451.591 246.826 448.289 246.826C443.708 246.826 439.97 245.849 437.076 243.896C434.182 241.925 432.406 239.129 431.749 235.506L439.446 234.335C439.926 236.341 440.911 237.859 442.403 238.889C443.894 239.901 445.838 240.407 448.235 240.407C450.846 240.407 452.932 239.865 454.494 238.782C456.057 237.681 456.838 236.341 456.838 234.761C456.838 233.482 456.359 232.408 455.4 231.538C454.459 230.668 453.012 230.011 451.059 229.567L444.134 228.049C440.316 227.179 437.493 225.794 435.664 223.894C433.853 221.994 432.948 219.588 432.948 216.676C432.948 214.262 433.623 212.149 434.972 210.338C436.321 208.527 438.186 207.115 440.565 206.103C442.944 205.073 445.67 204.558 448.741 204.558C453.163 204.558 456.643 205.517 459.182 207.435C461.721 209.335 463.399 211.882 464.216 215.078ZM524.008 205.783C523.724 203.262 522.552 201.309 520.492 199.924C518.433 198.521 515.84 197.82 512.715 197.82C510.478 197.82 508.543 198.175 506.909 198.885C505.276 199.578 504.006 200.537 503.1 201.762C502.213 202.969 501.769 204.345 501.769 205.89C501.769 207.186 502.071 208.305 502.674 209.246C503.296 210.187 504.104 210.977 505.098 211.616C506.11 212.238 507.193 212.761 508.347 213.188C509.501 213.596 510.611 213.933 511.676 214.2L517.003 215.585C518.743 216.011 520.528 216.588 522.357 217.316C524.185 218.044 525.881 219.002 527.444 220.192C529.006 221.382 530.267 222.855 531.225 224.613C532.202 226.371 532.69 228.475 532.69 230.925C532.69 234.015 531.891 236.758 530.293 239.155C528.713 241.552 526.414 243.443 523.395 244.828C520.395 246.213 516.763 246.906 512.502 246.906C508.418 246.906 504.885 246.257 501.902 244.961C498.919 243.665 496.584 241.827 494.897 239.448C493.211 237.051 492.278 234.21 492.101 230.925H500.357C500.517 232.896 501.156 234.539 502.275 235.853C503.411 237.149 504.858 238.116 506.616 238.756C508.392 239.377 510.336 239.688 512.449 239.688C514.775 239.688 516.843 239.324 518.654 238.596C520.483 237.85 521.922 236.82 522.969 235.506C524.017 234.175 524.54 232.621 524.54 230.846C524.54 229.23 524.079 227.907 523.156 226.877C522.25 225.847 521.016 224.995 519.453 224.32C517.909 223.646 516.16 223.051 514.207 222.536L507.761 220.778C503.393 219.588 499.931 217.839 497.374 215.531C494.835 213.223 493.566 210.169 493.566 206.369C493.566 203.227 494.418 200.483 496.123 198.14C497.827 195.796 500.135 193.976 503.047 192.68C505.959 191.366 509.244 190.709 512.902 190.709C516.595 190.709 519.853 191.357 522.676 192.653C525.517 193.949 527.754 195.734 529.388 198.006C531.021 200.261 531.874 202.854 531.945 205.783H524.008ZM560.982 205.091V211.483H538.636V205.091H560.982ZM544.629 195.29H552.592V233.988C552.592 235.533 552.823 236.696 553.285 237.477C553.746 238.241 554.341 238.765 555.069 239.049C555.815 239.315 556.623 239.448 557.493 239.448C558.132 239.448 558.691 239.404 559.171 239.315C559.65 239.226 560.023 239.155 560.289 239.102L561.728 245.68C561.266 245.858 560.609 246.036 559.757 246.213C558.904 246.408 557.839 246.515 556.561 246.533C554.465 246.568 552.512 246.195 550.701 245.414C548.89 244.633 547.425 243.425 546.307 241.792C545.188 240.158 544.629 238.108 544.629 235.64V195.29ZM586.583 246.826C582.748 246.826 579.401 245.947 576.542 244.189C573.684 242.431 571.464 239.972 569.884 236.811C568.304 233.651 567.514 229.958 567.514 225.732C567.514 221.488 568.304 217.777 569.884 214.599C571.464 211.421 573.684 208.953 576.542 207.195C579.401 205.437 582.748 204.558 586.583 204.558C590.419 204.558 593.765 205.437 596.624 207.195C599.483 208.953 601.702 211.421 603.282 214.599C604.863 217.777 605.653 221.488 605.653 225.732C605.653 229.958 604.863 233.651 603.282 236.811C601.702 239.972 599.483 242.431 596.624 244.189C593.765 245.947 590.419 246.826 586.583 246.826ZM586.61 240.141C589.096 240.141 591.155 239.484 592.789 238.17C594.422 236.856 595.63 235.107 596.411 232.923C597.21 230.739 597.61 228.333 597.61 225.705C597.61 223.095 597.21 220.698 596.411 218.514C595.63 216.312 594.422 214.546 592.789 213.214C591.155 211.882 589.096 211.217 586.61 211.217C584.106 211.217 582.029 211.882 580.378 213.214C578.744 214.546 577.528 216.312 576.729 218.514C575.948 220.698 575.557 223.095 575.557 225.705C575.557 228.333 575.948 230.739 576.729 232.923C577.528 235.107 578.744 236.856 580.378 238.17C582.029 239.484 584.106 240.141 586.61 240.141ZM614.542 246V205.091H622.239V211.589H622.665C623.411 209.388 624.725 207.657 626.607 206.396C628.507 205.118 630.655 204.478 633.052 204.478C633.549 204.478 634.135 204.496 634.81 204.532C635.502 204.567 636.044 204.612 636.435 204.665V212.282C636.115 212.193 635.547 212.096 634.73 211.989C633.913 211.865 633.097 211.803 632.28 211.803C630.398 211.803 628.72 212.202 627.246 213.001C625.79 213.782 624.636 214.874 623.784 216.277C622.931 217.662 622.505 219.242 622.505 221.018V246H614.542ZM643.326 246V205.091H651.289V246H643.326ZM647.348 198.779C645.963 198.779 644.773 198.317 643.779 197.394C642.802 196.453 642.314 195.334 642.314 194.038C642.314 192.724 642.802 191.605 643.779 190.682C644.773 189.741 645.963 189.271 647.348 189.271C648.733 189.271 649.913 189.741 650.89 190.682C651.884 191.605 652.381 192.724 652.381 194.038C652.381 195.334 651.884 196.453 650.89 197.394C649.913 198.317 648.733 198.779 647.348 198.779ZM679.634 246.826C675.604 246.826 672.132 245.964 669.22 244.242C666.326 242.502 664.089 240.061 662.509 236.918C660.946 233.757 660.165 230.055 660.165 225.812C660.165 221.621 660.946 217.928 662.509 214.732C664.089 211.536 666.291 209.042 669.114 207.248C671.955 205.455 675.275 204.558 679.075 204.558C681.383 204.558 683.62 204.94 685.786 205.703C687.953 206.467 689.897 207.665 691.619 209.299C693.342 210.933 694.7 213.054 695.694 215.664C696.688 218.257 697.186 221.408 697.186 225.119V227.942H664.666V221.977H689.382C689.382 219.881 688.956 218.026 688.104 216.41C687.251 214.777 686.053 213.489 684.508 212.548C682.981 211.607 681.188 211.137 679.128 211.137C676.891 211.137 674.938 211.687 673.269 212.788C671.617 213.871 670.339 215.292 669.434 217.049C668.546 218.789 668.102 220.68 668.102 222.722V227.383C668.102 230.118 668.581 232.444 669.54 234.361C670.517 236.279 671.875 237.744 673.615 238.756C675.355 239.75 677.388 240.247 679.714 240.247C681.223 240.247 682.599 240.034 683.842 239.608C685.085 239.164 686.159 238.507 687.065 237.637C687.97 236.767 688.663 235.693 689.142 234.414L696.68 235.773C696.076 237.992 694.993 239.936 693.43 241.605C691.886 243.257 689.941 244.544 687.598 245.467C685.272 246.373 682.617 246.826 679.634 246.826ZM736.676 215.078L729.459 216.357C729.157 215.434 728.678 214.555 728.021 213.72C727.381 212.886 726.511 212.202 725.411 211.669C724.31 211.137 722.934 210.87 721.282 210.87C719.027 210.87 717.145 211.376 715.636 212.388C714.127 213.383 713.372 214.67 713.372 216.25C713.372 217.618 713.878 218.718 714.89 219.553C715.902 220.387 717.536 221.071 719.791 221.604L726.289 223.095C730.054 223.965 732.859 225.306 734.706 227.117C736.552 228.928 737.475 231.281 737.475 234.175C737.475 236.625 736.765 238.809 735.345 240.727C733.942 242.626 731.98 244.118 729.459 245.201C726.955 246.284 724.052 246.826 720.75 246.826C716.169 246.826 712.431 245.849 709.537 243.896C706.643 241.925 704.867 239.129 704.21 235.506L711.907 234.335C712.387 236.341 713.372 237.859 714.864 238.889C716.355 239.901 718.299 240.407 720.696 240.407C723.306 240.407 725.393 239.865 726.955 238.782C728.518 237.681 729.299 236.341 729.299 234.761C729.299 233.482 728.82 232.408 727.861 231.538C726.92 230.668 725.473 230.011 723.52 229.567L716.595 228.049C712.777 227.179 709.954 225.794 708.125 223.894C706.314 221.994 705.409 219.588 705.409 216.676C705.409 214.262 706.083 212.149 707.433 210.338C708.782 208.527 710.647 207.115 713.026 206.103C715.405 205.073 718.131 204.558 721.202 204.558C725.624 204.558 729.104 205.517 731.643 207.435C734.182 209.335 735.86 211.882 736.676 215.078ZM187.227 337.772C183.569 337.772 180.418 337.107 177.772 335.775C175.144 334.443 173.12 332.632 171.7 330.342C170.279 328.033 169.569 325.423 169.569 322.511C169.569 320.292 170.031 318.321 170.954 316.599C171.877 314.859 173.164 313.252 174.816 311.778C176.467 310.304 178.376 308.822 180.542 307.33L189.331 301.125C190.822 300.148 191.985 299.118 192.82 298.035C193.654 296.934 194.072 295.576 194.072 293.96C194.072 292.682 193.521 291.457 192.42 290.285C191.32 289.113 189.846 288.527 187.999 288.527C186.721 288.527 185.593 288.838 184.617 289.459C183.658 290.081 182.903 290.88 182.353 291.856C181.82 292.815 181.554 293.827 181.554 294.892C181.554 296.135 181.891 297.387 182.566 298.648C183.259 299.908 184.146 301.213 185.229 302.563C186.313 303.895 187.449 305.279 188.638 306.718L213.967 337H204.965L184.004 312.364C182.246 310.287 180.613 308.333 179.104 306.505C177.594 304.658 176.369 302.794 175.428 300.912C174.505 299.012 174.043 296.961 174.043 294.759C174.043 292.256 174.612 290.036 175.748 288.101C176.902 286.148 178.509 284.621 180.569 283.52C182.628 282.419 185.043 281.869 187.813 281.869C190.618 281.869 193.024 282.419 195.031 283.52C197.055 284.603 198.608 286.05 199.691 287.861C200.792 289.654 201.343 291.616 201.343 293.747C201.343 296.339 200.695 298.63 199.398 300.619C198.12 302.589 196.353 304.401 194.098 306.052L183.152 314.122C181.021 315.684 179.539 317.229 178.704 318.756C177.887 320.265 177.479 321.446 177.479 322.298C177.479 323.861 177.879 325.308 178.678 326.64C179.494 327.971 180.631 329.037 182.087 329.836C183.56 330.635 185.283 331.034 187.254 331.034C189.278 331.034 191.249 330.599 193.166 329.729C195.102 328.841 196.85 327.572 198.413 325.92C199.993 324.269 201.245 322.289 202.168 319.981C203.092 317.673 203.553 315.089 203.553 312.231H210.744C210.744 315.746 210.345 318.721 209.546 321.153C208.747 323.568 207.779 325.539 206.643 327.066C205.524 328.575 204.468 329.756 203.473 330.608C203.154 330.892 202.852 331.176 202.568 331.46C202.284 331.744 201.982 332.028 201.662 332.312C199.816 334.177 197.578 335.553 194.951 336.441C192.341 337.328 189.766 337.772 187.227 337.772ZM240.694 337V282.455H274.891V289.539H248.923V306.158H273.107V313.216H248.923V329.915H275.211V337H240.694ZM291.53 296.091L300.559 312.018L309.668 296.091H318.377L305.62 316.545L318.484 337H309.774L300.559 321.712L291.371 337H282.635L295.366 316.545L282.795 296.091H291.53ZM326.554 352.341V296.091H334.331V302.723H334.996C335.458 301.87 336.124 300.885 336.994 299.766C337.864 298.648 339.071 297.671 340.616 296.837C342.161 295.984 344.203 295.558 346.742 295.558C350.044 295.558 352.992 296.393 355.584 298.062C358.176 299.731 360.209 302.137 361.683 305.279C363.175 308.422 363.92 312.204 363.92 316.625C363.92 321.047 363.184 324.837 361.71 327.998C360.236 331.141 358.212 333.564 355.637 335.269C353.063 336.956 350.124 337.799 346.822 337.799C344.336 337.799 342.303 337.382 340.723 336.547C339.16 335.713 337.935 334.736 337.047 333.618C336.159 332.499 335.476 331.505 334.996 330.635H334.517V352.341H326.554ZM334.357 316.545C334.357 319.422 334.774 321.943 335.609 324.109C336.443 326.276 337.651 327.971 339.231 329.196C340.811 330.404 342.747 331.007 345.037 331.007C347.416 331.007 349.405 330.377 351.003 329.116C352.601 327.838 353.809 326.107 354.625 323.923C355.46 321.739 355.877 319.28 355.877 316.545C355.877 313.847 355.469 311.423 354.652 309.275C353.853 307.126 352.646 305.43 351.03 304.188C349.432 302.945 347.434 302.323 345.037 302.323C342.729 302.323 340.776 302.918 339.178 304.108C337.598 305.297 336.399 306.957 335.582 309.088C334.766 311.219 334.357 313.705 334.357 316.545ZM390.474 337.826C386.443 337.826 382.972 336.964 380.06 335.242C377.166 333.502 374.929 331.061 373.349 327.918C371.786 324.757 371.005 321.055 371.005 316.812C371.005 312.621 371.786 308.928 373.349 305.732C374.929 302.536 377.131 300.042 379.954 298.248C382.795 296.455 386.115 295.558 389.915 295.558C392.223 295.558 394.46 295.94 396.626 296.703C398.793 297.467 400.737 298.665 402.459 300.299C404.181 301.933 405.54 304.054 406.534 306.664C407.528 309.257 408.025 312.408 408.025 316.119V318.942H375.506V312.977H400.222C400.222 310.881 399.796 309.026 398.943 307.41C398.091 305.777 396.893 304.489 395.348 303.548C393.821 302.607 392.028 302.137 389.968 302.137C387.731 302.137 385.778 302.687 384.109 303.788C382.457 304.871 381.179 306.292 380.273 308.049C379.386 309.789 378.942 311.68 378.942 313.722V318.383C378.942 321.118 379.421 323.444 380.38 325.361C381.356 327.279 382.715 328.744 384.455 329.756C386.195 330.75 388.228 331.247 390.554 331.247C392.063 331.247 393.439 331.034 394.682 330.608C395.925 330.164 396.999 329.507 397.905 328.637C398.81 327.767 399.503 326.693 399.982 325.414L407.519 326.773C406.916 328.992 405.833 330.936 404.27 332.605C402.725 334.257 400.781 335.544 398.437 336.467C396.111 337.373 393.457 337.826 390.474 337.826ZM416.861 337V296.091H424.558V302.589H424.984C425.73 300.388 427.044 298.657 428.926 297.396C430.826 296.118 432.974 295.478 435.371 295.478C435.869 295.478 436.455 295.496 437.129 295.532C437.822 295.567 438.363 295.612 438.754 295.665V303.282C438.434 303.193 437.866 303.096 437.049 302.989C436.233 302.865 435.416 302.803 434.599 302.803C432.717 302.803 431.039 303.202 429.565 304.001C428.109 304.782 426.955 305.874 426.103 307.277C425.251 308.662 424.825 310.242 424.825 312.018V337H416.861ZM445.645 337V296.091H453.609V337H445.645ZM449.667 289.779C448.282 289.779 447.092 289.317 446.098 288.394C445.122 287.453 444.633 286.334 444.633 285.038C444.633 283.724 445.122 282.605 446.098 281.682C447.092 280.741 448.282 280.271 449.667 280.271C451.052 280.271 452.233 280.741 453.209 281.682C454.204 282.605 454.701 283.724 454.701 285.038C454.701 286.334 454.204 287.453 453.209 288.394C452.233 289.317 451.052 289.779 449.667 289.779ZM481.953 337.826C477.923 337.826 474.452 336.964 471.54 335.242C468.646 333.502 466.408 331.061 464.828 327.918C463.266 324.757 462.484 321.055 462.484 316.812C462.484 312.621 463.266 308.928 464.828 305.732C466.408 302.536 468.61 300.042 471.433 298.248C474.274 296.455 477.594 295.558 481.394 295.558C483.702 295.558 485.94 295.94 488.106 296.703C490.272 297.467 492.216 298.665 493.939 300.299C495.661 301.933 497.019 304.054 498.013 306.664C499.008 309.257 499.505 312.408 499.505 316.119V318.942H466.985V312.977H491.701C491.701 310.881 491.275 309.026 490.423 307.41C489.571 305.777 488.372 304.489 486.827 303.548C485.3 302.607 483.507 302.137 481.447 302.137C479.21 302.137 477.257 302.687 475.588 303.788C473.937 304.871 472.658 306.292 471.753 308.049C470.865 309.789 470.421 311.68 470.421 313.722V318.383C470.421 321.118 470.901 323.444 471.859 325.361C472.836 327.279 474.194 328.744 475.934 329.756C477.674 330.75 479.707 331.247 482.033 331.247C483.543 331.247 484.919 331.034 486.162 330.608C487.404 330.164 488.479 329.507 489.384 328.637C490.29 327.767 490.982 326.693 491.462 325.414L498.999 326.773C498.395 328.992 497.312 330.936 495.75 332.605C494.205 334.257 492.261 335.544 489.917 336.467C487.591 337.373 484.936 337.826 481.953 337.826ZM516.304 312.71V337H508.341V296.091H515.984V302.749H516.491C517.432 300.583 518.905 298.843 520.912 297.529C522.936 296.215 525.484 295.558 528.555 295.558C531.343 295.558 533.785 296.144 535.88 297.316C537.975 298.47 539.6 300.192 540.754 302.483C541.908 304.773 542.485 307.605 542.485 310.979V337H534.521V311.938C534.521 308.973 533.749 306.656 532.204 304.987C530.66 303.3 528.538 302.456 525.839 302.456C523.992 302.456 522.35 302.856 520.912 303.655C519.491 304.454 518.364 305.626 517.529 307.17C516.712 308.697 516.304 310.544 516.304 312.71ZM570.397 337.826C566.437 337.826 563.028 336.929 560.169 335.136C557.329 333.325 555.145 330.83 553.618 327.652C552.091 324.473 551.327 320.833 551.327 316.732C551.327 312.577 552.108 308.911 553.671 305.732C555.233 302.536 557.435 300.042 560.276 298.248C563.117 296.455 566.464 295.558 570.317 295.558C573.424 295.558 576.194 296.135 578.627 297.289C581.059 298.426 583.021 300.024 584.513 302.083C586.022 304.143 586.918 306.549 587.203 309.301H579.452C579.026 307.384 578.049 305.732 576.522 304.347C575.013 302.962 572.989 302.27 570.45 302.27C568.231 302.27 566.286 302.856 564.617 304.028C562.966 305.182 561.679 306.833 560.755 308.982C559.832 311.112 559.37 313.634 559.37 316.545C559.37 319.528 559.823 322.103 560.729 324.269C561.634 326.435 562.913 328.113 564.564 329.303C566.233 330.493 568.195 331.087 570.45 331.087C571.959 331.087 573.326 330.812 574.552 330.262C575.794 329.694 576.833 328.886 577.668 327.838C578.52 326.79 579.115 325.53 579.452 324.056H587.203C586.918 326.702 586.057 329.063 584.619 331.141C583.181 333.218 581.254 334.852 578.84 336.041C576.443 337.231 573.628 337.826 570.397 337.826ZM613.35 337.826C609.319 337.826 605.848 336.964 602.936 335.242C600.042 333.502 597.805 331.061 596.225 327.918C594.662 324.757 593.881 321.055 593.881 316.812C593.881 312.621 594.662 308.928 596.225 305.732C597.805 302.536 600.007 300.042 602.83 298.248C605.671 296.455 608.991 295.558 612.791 295.558C615.099 295.558 617.336 295.94 619.502 296.703C621.669 297.467 623.613 298.665 625.335 300.299C627.057 301.933 628.416 304.054 629.41 306.664C630.404 309.257 630.901 312.408 630.901 316.119V318.942H598.382V312.977H623.098C623.098 310.881 622.672 309.026 621.819 307.41C620.967 305.777 619.769 304.489 618.224 303.548C616.697 302.607 614.904 302.137 612.844 302.137C610.607 302.137 608.654 302.687 606.985 303.788C605.333 304.871 604.055 306.292 603.149 308.049C602.262 309.789 601.818 311.68 601.818 313.722V318.383C601.818 321.118 602.297 323.444 603.256 325.361C604.232 327.279 605.591 328.744 607.331 329.756C609.071 330.75 611.104 331.247 613.43 331.247C614.939 331.247 616.315 331.034 617.558 330.608C618.801 330.164 619.875 329.507 620.781 328.637C621.686 327.767 622.379 326.693 622.858 325.414L630.395 326.773C629.792 328.992 628.709 330.936 627.146 332.605C625.601 334.257 623.657 335.544 621.313 336.467C618.987 337.373 616.333 337.826 613.35 337.826ZM670.392 306.078L663.175 307.357C662.873 306.434 662.393 305.555 661.736 304.72C661.097 303.886 660.227 303.202 659.126 302.669C658.025 302.137 656.649 301.87 654.998 301.87C652.743 301.87 650.861 302.376 649.352 303.388C647.843 304.383 647.088 305.67 647.088 307.25C647.088 308.618 647.594 309.718 648.606 310.553C649.618 311.387 651.252 312.071 653.507 312.604L660.005 314.095C663.769 314.965 666.575 316.306 668.421 318.117C670.268 319.928 671.191 322.281 671.191 325.175C671.191 327.625 670.481 329.809 669.061 331.727C667.658 333.626 665.696 335.118 663.175 336.201C660.671 337.284 657.768 337.826 654.465 337.826C649.884 337.826 646.147 336.849 643.253 334.896C640.359 332.925 638.583 330.129 637.926 326.506L645.623 325.335C646.103 327.341 647.088 328.859 648.579 329.889C650.071 330.901 652.015 331.407 654.412 331.407C657.022 331.407 659.109 330.865 660.671 329.782C662.234 328.681 663.015 327.341 663.015 325.761C663.015 324.482 662.535 323.408 661.577 322.538C660.636 321.668 659.188 321.011 657.235 320.567L650.311 319.049C646.493 318.179 643.67 316.794 641.841 314.894C640.03 312.994 639.125 310.588 639.125 307.676C639.125 305.262 639.799 303.149 641.149 301.338C642.498 299.527 644.362 298.115 646.742 297.103C649.121 296.073 651.847 295.558 654.918 295.558C659.339 295.558 662.82 296.517 665.359 298.435C667.898 300.335 669.576 302.882 670.392 306.078ZM188.585 428.826C184.75 428.826 181.403 427.947 178.544 426.189C175.686 424.431 173.466 421.972 171.886 418.811C170.306 415.651 169.516 411.958 169.516 407.732C169.516 403.488 170.306 399.777 171.886 396.599C173.466 393.421 175.686 390.953 178.544 389.195C181.403 387.437 184.75 386.558 188.585 386.558C192.42 386.558 195.767 387.437 198.626 389.195C201.485 390.953 203.704 393.421 205.284 396.599C206.865 399.777 207.655 403.488 207.655 407.732C207.655 411.958 206.865 415.651 205.284 418.811C203.704 421.972 201.485 424.431 198.626 426.189C195.767 427.947 192.42 428.826 188.585 428.826ZM188.612 422.141C191.098 422.141 193.157 421.484 194.791 420.17C196.424 418.856 197.632 417.107 198.413 414.923C199.212 412.739 199.612 410.333 199.612 407.705C199.612 405.095 199.212 402.698 198.413 400.514C197.632 398.312 196.424 396.546 194.791 395.214C193.157 393.882 191.098 393.217 188.612 393.217C186.108 393.217 184.031 393.882 182.38 395.214C180.746 396.546 179.53 398.312 178.731 400.514C177.95 402.698 177.559 405.095 177.559 407.705C177.559 410.333 177.95 412.739 178.731 414.923C179.53 417.107 180.746 418.856 182.38 420.17C184.031 421.484 186.108 422.141 188.612 422.141ZM236.013 387.091V393.483H212.895V387.091H236.013ZM219.234 428V382.35C219.234 379.793 219.793 377.672 220.912 375.985C222.03 374.28 223.513 373.011 225.359 372.176C227.206 371.324 229.212 370.898 231.379 370.898C232.977 370.898 234.344 371.031 235.48 371.297C236.617 371.546 237.46 371.777 238.01 371.99L236.146 378.435C235.773 378.328 235.294 378.204 234.708 378.062C234.122 377.902 233.412 377.822 232.577 377.822C230.642 377.822 229.257 378.302 228.422 379.261C227.606 380.219 227.197 381.604 227.197 383.415V428H219.234ZM264.717 428V373.455H298.915V380.539H272.947V397.158H297.13V404.216H272.947V420.915H299.234V428H264.717ZM344.265 387.091L329.43 428H320.907L306.046 387.091H314.595L324.956 418.572H325.382L335.715 387.091H344.265ZM367.989 428.826C363.958 428.826 360.487 427.964 357.575 426.242C354.681 424.502 352.444 422.061 350.863 418.918C349.301 415.757 348.52 412.055 348.52 407.812C348.52 403.621 349.301 399.928 350.863 396.732C352.444 393.536 354.645 391.042 357.468 389.248C360.309 387.455 363.63 386.558 367.429 386.558C369.738 386.558 371.975 386.94 374.141 387.703C376.307 388.467 378.251 389.665 379.974 391.299C381.696 392.933 383.054 395.054 384.049 397.664C385.043 400.257 385.54 403.408 385.54 407.119V409.942H353.021V403.977H377.737C377.737 401.881 377.31 400.026 376.458 398.41C375.606 396.777 374.407 395.489 372.863 394.548C371.336 393.607 369.542 393.137 367.483 393.137C365.245 393.137 363.292 393.687 361.623 394.788C359.972 395.871 358.694 397.292 357.788 399.049C356.9 400.789 356.456 402.68 356.456 404.722V409.383C356.456 412.118 356.936 414.444 357.895 416.361C358.871 418.279 360.229 419.744 361.969 420.756C363.71 421.75 365.743 422.247 368.069 422.247C369.578 422.247 370.954 422.034 372.197 421.608C373.44 421.164 374.514 420.507 375.419 419.637C376.325 418.767 377.017 417.693 377.497 416.414L385.034 417.773C384.43 419.992 383.347 421.936 381.785 423.605C380.24 425.257 378.296 426.544 375.952 427.467C373.626 428.373 370.972 428.826 367.989 428.826ZM394.376 428V387.091H402.073V393.589H402.499C403.245 391.388 404.559 389.657 406.441 388.396C408.341 387.118 410.489 386.478 412.886 386.478C413.383 386.478 413.969 386.496 414.644 386.532C415.336 386.567 415.878 386.612 416.269 386.665V394.282C415.949 394.193 415.381 394.096 414.564 393.989C413.747 393.865 412.93 393.803 412.114 393.803C410.232 393.803 408.554 394.202 407.08 395.001C405.624 395.782 404.47 396.874 403.618 398.277C402.765 399.662 402.339 401.242 402.339 403.018V428H394.376ZM429.439 443.341C428.249 443.341 427.166 443.243 426.19 443.048C425.213 442.87 424.485 442.675 424.006 442.462L425.923 435.937C427.379 436.327 428.675 436.496 429.812 436.443C430.948 436.39 431.951 435.963 432.821 435.164C433.709 434.365 434.49 433.06 435.165 431.249L436.15 428.533L421.182 387.091H429.705L440.066 418.838H440.492L450.852 387.091H459.402L442.543 433.46C441.761 435.591 440.767 437.393 439.56 438.866C438.352 440.358 436.914 441.477 435.245 442.222C433.576 442.968 431.641 443.341 429.439 443.341ZM480.808 428.799C477.506 428.799 474.558 427.956 471.966 426.269C469.391 424.564 467.367 422.141 465.893 418.998C464.438 415.837 463.71 412.047 463.71 407.625C463.71 403.204 464.446 399.422 465.92 396.279C467.412 393.137 469.453 390.731 472.046 389.062C474.638 387.393 477.577 386.558 480.862 386.558C483.401 386.558 485.442 386.984 486.987 387.837C488.55 388.671 489.757 389.648 490.609 390.766C491.479 391.885 492.154 392.87 492.634 393.723H493.113V373.455H501.076V428H493.299V421.635H492.634C492.154 422.505 491.462 423.499 490.556 424.618C489.668 425.736 488.443 426.713 486.881 427.547C485.318 428.382 483.294 428.799 480.808 428.799ZM482.566 422.007C484.857 422.007 486.792 421.404 488.372 420.196C489.97 418.971 491.178 417.276 491.994 415.109C492.829 412.943 493.246 410.422 493.246 407.545C493.246 404.705 492.838 402.219 492.021 400.088C491.204 397.957 490.006 396.297 488.425 395.108C486.845 393.918 484.892 393.323 482.566 393.323C480.169 393.323 478.172 393.945 476.574 395.188C474.975 396.43 473.768 398.126 472.951 400.275C472.152 402.423 471.753 404.847 471.753 407.545C471.753 410.28 472.161 412.739 472.978 414.923C473.795 417.107 475.002 418.838 476.6 420.116C478.216 421.377 480.205 422.007 482.566 422.007ZM524.347 428.906C521.755 428.906 519.411 428.426 517.316 427.467C515.221 426.491 513.561 425.079 512.336 423.233C511.128 421.386 510.525 419.122 510.525 416.441C510.525 414.133 510.968 412.233 511.856 410.741C512.744 409.25 513.943 408.069 515.452 407.199C516.961 406.329 518.648 405.672 520.512 405.228C522.377 404.784 524.276 404.447 526.212 404.216C528.662 403.932 530.651 403.701 532.178 403.524C533.705 403.328 534.814 403.018 535.507 402.592C536.199 402.165 536.546 401.473 536.546 400.514V400.328C536.546 398.002 535.889 396.2 534.575 394.921C533.278 393.643 531.343 393.004 528.769 393.004C526.087 393.004 523.975 393.598 522.43 394.788C520.903 395.96 519.846 397.265 519.26 398.703L511.776 396.999C512.664 394.513 513.96 392.506 515.665 390.979C517.387 389.435 519.367 388.316 521.604 387.624C523.841 386.913 526.194 386.558 528.662 386.558C530.296 386.558 532.027 386.754 533.856 387.144C535.702 387.517 537.424 388.21 539.022 389.222C540.638 390.234 541.961 391.681 542.991 393.563C544.021 395.427 544.536 397.851 544.536 400.834V428H536.759V422.407H536.439C535.924 423.437 535.152 424.449 534.122 425.443C533.092 426.437 531.769 427.263 530.153 427.92C528.538 428.577 526.602 428.906 524.347 428.906ZM526.079 422.513C528.28 422.513 530.162 422.078 531.725 421.208C533.305 420.338 534.504 419.202 535.32 417.799C536.155 416.379 536.572 414.861 536.572 413.245V407.972C536.288 408.256 535.738 408.522 534.921 408.771C534.122 409.001 533.207 409.206 532.178 409.383C531.148 409.543 530.145 409.694 529.168 409.836C528.191 409.96 527.375 410.067 526.718 410.156C525.173 410.351 523.761 410.679 522.483 411.141C521.222 411.603 520.21 412.268 519.447 413.138C518.701 413.991 518.328 415.127 518.328 416.548C518.328 418.518 519.056 420.01 520.512 421.022C521.968 422.016 523.824 422.513 526.079 422.513ZM558.711 443.341C557.522 443.341 556.439 443.243 555.462 443.048C554.485 442.87 553.757 442.675 553.278 442.462L555.196 435.937C556.652 436.327 557.948 436.496 559.084 436.443C560.221 436.39 561.224 435.963 562.094 435.164C562.982 434.365 563.763 433.06 564.438 431.249L565.423 428.533L550.455 387.091H558.978L569.338 418.838H569.764L580.125 387.091H588.674L571.815 433.46C571.034 435.591 570.039 437.393 568.832 438.866C567.625 440.358 566.186 441.477 564.517 442.222C562.848 442.968 560.913 443.341 558.711 443.341ZM176.6 519H167.864L187.493 464.455H197.001L216.63 519H207.895L192.474 474.362H192.048L176.6 519ZM178.065 497.64H206.403V504.565H178.065V497.64ZM243.117 478.091V484.483H219.999V478.091H243.117ZM226.338 519V473.35C226.338 470.793 226.898 468.672 228.016 466.985C229.135 465.28 230.617 464.011 232.464 463.176C234.311 462.324 236.317 461.898 238.483 461.898C240.081 461.898 241.448 462.031 242.585 462.297C243.721 462.546 244.564 462.777 245.115 462.99L243.251 469.435C242.878 469.328 242.398 469.204 241.812 469.062C241.226 468.902 240.516 468.822 239.682 468.822C237.746 468.822 236.361 469.302 235.527 470.261C234.71 471.219 234.302 472.604 234.302 474.415V519H226.338ZM251.334 519V478.091H259.031V484.589H259.457C260.203 482.388 261.517 480.657 263.399 479.396C265.299 478.118 267.447 477.478 269.844 477.478C270.341 477.478 270.927 477.496 271.602 477.532C272.294 477.567 272.836 477.612 273.227 477.665V485.282C272.907 485.193 272.339 485.096 271.522 484.989C270.705 484.865 269.888 484.803 269.072 484.803C267.19 484.803 265.512 485.202 264.038 486.001C262.582 486.782 261.428 487.874 260.576 489.277C259.723 490.662 259.297 492.242 259.297 494.018V519H251.334ZM280.118 519V478.091H288.081V519H280.118ZM284.14 471.779C282.755 471.779 281.565 471.317 280.571 470.394C279.594 469.453 279.106 468.334 279.106 467.038C279.106 465.724 279.594 464.605 280.571 463.682C281.565 462.741 282.755 462.271 284.14 462.271C285.525 462.271 286.705 462.741 287.682 463.682C288.676 464.605 289.173 465.724 289.173 467.038C289.173 468.334 288.676 469.453 287.682 470.394C286.705 471.317 285.525 471.779 284.14 471.779ZM316.027 519.826C312.067 519.826 308.658 518.929 305.799 517.136C302.958 515.325 300.775 512.83 299.248 509.652C297.721 506.473 296.957 502.833 296.957 498.732C296.957 494.577 297.738 490.911 299.301 487.732C300.863 484.536 303.065 482.042 305.906 480.248C308.747 478.455 312.094 477.558 315.947 477.558C319.054 477.558 321.824 478.135 324.256 479.289C326.689 480.426 328.651 482.024 330.142 484.083C331.652 486.143 332.548 488.549 332.832 491.301H325.082C324.656 489.384 323.679 487.732 322.152 486.347C320.643 484.962 318.619 484.27 316.08 484.27C313.86 484.27 311.916 484.856 310.247 486.028C308.596 487.182 307.309 488.833 306.385 490.982C305.462 493.112 305 495.634 305 498.545C305 501.528 305.453 504.103 306.359 506.269C307.264 508.435 308.543 510.113 310.194 511.303C311.863 512.493 313.825 513.087 316.08 513.087C317.589 513.087 318.956 512.812 320.181 512.262C321.424 511.694 322.463 510.886 323.298 509.838C324.15 508.79 324.745 507.53 325.082 506.056H332.832C332.548 508.702 331.687 511.063 330.249 513.141C328.811 515.218 326.884 516.852 324.469 518.041C322.072 519.231 319.258 519.826 316.027 519.826ZM353.254 519.906C350.661 519.906 348.318 519.426 346.222 518.467C344.127 517.491 342.467 516.079 341.242 514.233C340.035 512.386 339.431 510.122 339.431 507.441C339.431 505.133 339.875 503.233 340.763 501.741C341.65 500.25 342.849 499.069 344.358 498.199C345.867 497.329 347.554 496.672 349.418 496.228C351.283 495.784 353.183 495.447 355.118 495.216C357.568 494.932 359.557 494.701 361.084 494.524C362.611 494.328 363.721 494.018 364.413 493.592C365.106 493.165 365.452 492.473 365.452 491.514V491.328C365.452 489.002 364.795 487.2 363.481 485.921C362.185 484.643 360.249 484.004 357.675 484.004C354.994 484.004 352.881 484.598 351.336 485.788C349.809 486.96 348.753 488.265 348.167 489.703L340.683 487.999C341.57 485.513 342.867 483.506 344.571 481.979C346.293 480.435 348.273 479.316 350.51 478.624C352.748 477.913 355.1 477.558 357.568 477.558C359.202 477.558 360.933 477.754 362.762 478.144C364.608 478.517 366.331 479.21 367.929 480.222C369.544 481.234 370.867 482.681 371.897 484.563C372.927 486.427 373.442 488.851 373.442 491.834V519H365.665V513.407H365.345C364.83 514.437 364.058 515.449 363.028 516.443C361.998 517.437 360.676 518.263 359.06 518.92C357.444 519.577 355.509 519.906 353.254 519.906ZM354.985 513.513C357.187 513.513 359.069 513.078 360.631 512.208C362.211 511.338 363.41 510.202 364.227 508.799C365.061 507.379 365.478 505.861 365.478 504.245V498.972C365.194 499.256 364.644 499.522 363.827 499.771C363.028 500.001 362.114 500.206 361.084 500.383C360.054 500.543 359.051 500.694 358.074 500.836C357.098 500.96 356.281 501.067 355.624 501.156C354.079 501.351 352.668 501.679 351.389 502.141C350.129 502.603 349.117 503.268 348.353 504.138C347.607 504.991 347.234 506.127 347.234 507.548C347.234 509.518 347.962 511.01 349.418 512.022C350.874 513.016 352.73 513.513 354.985 513.513ZM392.012 494.71V519H384.049V478.091H391.692V484.749H392.199C393.14 482.583 394.613 480.843 396.62 479.529C398.644 478.215 401.192 477.558 404.263 477.558C407.051 477.558 409.493 478.144 411.588 479.316C413.683 480.47 415.308 482.192 416.462 484.483C417.616 486.773 418.193 489.605 418.193 492.979V519H410.229V493.938C410.229 490.973 409.457 488.656 407.912 486.987C406.368 485.3 404.246 484.456 401.547 484.456C399.7 484.456 398.058 484.856 396.62 485.655C395.199 486.454 394.072 487.626 393.237 489.17C392.42 490.697 392.012 492.544 392.012 494.71ZM459.528 488.078L452.31 489.357C452.009 488.434 451.529 487.555 450.872 486.72C450.233 485.886 449.363 485.202 448.262 484.669C447.161 484.137 445.785 483.87 444.134 483.87C441.879 483.87 439.997 484.376 438.488 485.388C436.978 486.383 436.224 487.67 436.224 489.25C436.224 490.618 436.73 491.718 437.742 492.553C438.754 493.387 440.387 494.071 442.642 494.604L449.141 496.095C452.905 496.965 455.711 498.306 457.557 500.117C459.404 501.928 460.327 504.281 460.327 507.175C460.327 509.625 459.617 511.809 458.196 513.727C456.794 515.626 454.832 517.118 452.31 518.201C449.807 519.284 446.904 519.826 443.601 519.826C439.02 519.826 435.283 518.849 432.388 516.896C429.494 514.925 427.719 512.129 427.062 508.506L434.759 507.335C435.238 509.341 436.224 510.859 437.715 511.889C439.207 512.901 441.151 513.407 443.548 513.407C446.158 513.407 448.244 512.865 449.807 511.782C451.369 510.681 452.151 509.341 452.151 507.761C452.151 506.482 451.671 505.408 450.712 504.538C449.771 503.668 448.324 503.011 446.371 502.567L439.446 501.049C435.629 500.179 432.806 498.794 430.977 496.894C429.166 494.994 428.26 492.588 428.26 489.676C428.26 487.262 428.935 485.149 430.284 483.338C431.634 481.527 433.498 480.115 435.877 479.103C438.257 478.073 440.982 477.558 444.054 477.558C448.475 477.558 451.955 478.517 454.494 480.435C457.033 482.335 458.711 484.882 459.528 488.078Z" fill="white"/>
</g>
<defs>
<filter id="filter0_d_120_69" x="0" y="0.5" width="973" height="682.428" filterUnits="userSpaceOnUse" color-interpolation-filters="sRGB">
<feFlood flood-opacity="0" result="BackgroundImageFix"/>
<feColorMatrix in="SourceAlpha" type="matrix" values="0 0 0 0 0 0 0 0 0 0 0 0 0 0 0 0 0 0 127 0" result="hardAlpha"/>
<feOffset dy="4"/>
<feGaussianBlur stdDeviation="35"/>
<feComposite in2="hardAlpha" operator="out"/>
<feColorMatrix type="matrix" values="0 0 0 0 0 0 0 0 0 0 0 0 0 0 0 0 0 0 0.25 0"/>
<feBlend mode="normal" in2="BackgroundImageFix" result="effect1_dropShadow_120_69"/>
<feBlend mode="normal" in="SourceGraphic" in2="effect1_dropShadow_120_69" result="shape"/>
</filter>
</defs>
</svg>
