<svg width="410" height="374" viewBox="0 0 410 374" fill="none" xmlns="http://www.w3.org/2000/svg">
<path opacity="0.49" d="M309.385 374C307.905 374 306.611 372.916 306.37 371.403C306.111 369.721 307.24 368.151 308.904 367.871C310.828 367.554 312.733 367.161 314.545 366.675C316.173 366.246 317.837 367.217 318.281 368.861C318.706 370.506 317.745 372.187 316.117 372.636C314.101 373.178 311.993 373.626 309.866 373.963C309.699 373.981 309.552 374 309.385 374ZM279.091 372.954C278.906 372.954 278.702 372.954 278.517 372.897C277.592 372.729 276.668 372.524 275.743 372.337C274.615 372.094 273.487 371.832 272.395 371.552C270.768 371.122 269.788 369.441 270.195 367.796C270.62 366.152 272.266 365.162 273.912 365.573C274.929 365.835 275.965 366.077 277.001 366.302C277.888 366.488 278.795 366.675 279.664 366.844C281.31 367.161 282.401 368.768 282.087 370.45C281.809 371.926 280.533 372.954 279.091 372.954ZM245.929 358.435C245.3 358.435 244.653 358.23 244.117 357.819C242.452 356.567 240.806 355.24 239.197 353.839C237.921 352.736 237.773 350.793 238.864 349.504C239.956 348.214 241.897 348.065 243.155 349.167C244.653 350.475 246.207 351.709 247.742 352.886C249.092 353.895 249.369 355.838 248.371 357.202C247.779 358.005 246.854 358.435 245.929 358.435ZM340.9 356.903C340.179 356.903 339.458 356.641 338.884 356.118C337.627 354.997 337.516 353.035 338.625 351.765C339.865 350.345 341.085 348.812 342.213 347.205C343.194 345.823 345.099 345.486 346.467 346.477C347.836 347.467 348.15 349.392 347.188 350.774C345.931 352.549 344.599 354.268 343.194 355.838C342.583 356.529 341.751 356.866 340.919 356.866L340.9 356.903ZM221.146 331.529C220.185 331.529 219.223 331.062 218.631 330.202C217.466 328.483 216.319 326.745 215.191 324.97C214.285 323.531 214.71 321.626 216.116 320.71C217.54 319.794 219.426 320.206 220.332 321.644C221.405 323.363 222.515 325.045 223.643 326.689C224.605 328.091 224.253 330.015 222.866 330.968C222.33 331.342 221.738 331.51 221.146 331.51V331.529ZM356.732 323.98C356.491 323.98 356.251 323.961 356.01 323.887C354.383 323.494 353.366 321.812 353.773 320.168C354.254 318.188 354.66 316.226 355.012 314.301C355.326 312.619 356.917 311.517 358.563 311.835C360.227 312.152 361.318 313.759 361.004 315.422C360.634 317.459 360.19 319.533 359.691 321.607C359.358 323.008 358.1 323.961 356.732 323.961V323.98ZM203.003 299.428C201.875 299.428 200.802 298.792 200.266 297.709C199.359 295.859 198.472 293.99 197.584 292.122C196.863 290.59 197.51 288.74 199.026 288.011C200.543 287.282 202.356 287.918 203.095 289.469C203.965 291.318 204.852 293.15 205.74 294.981C206.48 296.513 205.851 298.344 204.353 299.11C203.928 299.334 203.465 299.428 203.003 299.428ZM360.246 287.245C358.6 287.245 357.25 285.918 357.194 284.255C357.083 280.574 356.861 278.332 356.861 278.314C356.695 276.613 357.915 275.118 359.599 274.95C361.245 274.782 362.761 276.015 362.946 277.697C362.946 277.79 363.186 280.145 363.297 284.069C363.353 285.769 362.021 287.189 360.338 287.245C360.301 287.245 360.283 287.245 360.246 287.245ZM187.597 265.832C186.431 265.832 185.322 265.159 184.822 264.019C183.972 262.151 183.139 260.282 182.289 258.433C181.586 256.882 182.252 255.051 183.787 254.341C185.322 253.631 187.134 254.303 187.837 255.854C188.688 257.723 189.539 259.591 190.389 261.478C191.092 263.029 190.408 264.86 188.873 265.552C188.466 265.739 188.04 265.832 187.615 265.832H187.597ZM3.05532 245.503C2.94435 245.503 2.8334 245.503 2.70394 245.484C1.03941 245.297 -0.181275 243.765 0.0221682 242.083C0.262601 239.953 0.577021 237.823 0.983907 235.749C1.29832 234.086 2.88889 233.002 4.55342 233.301C6.19946 233.619 7.29065 235.244 6.97624 236.907C6.60634 238.832 6.31041 240.813 6.08847 242.775C5.92201 244.344 4.59039 245.503 3.05532 245.503ZM171.506 232.61C170.433 232.61 169.379 232.031 168.824 231.022C167.844 229.228 166.864 227.471 165.847 225.734C164.996 224.258 165.495 222.37 166.938 221.53C168.399 220.67 170.267 221.175 171.099 222.632C172.135 224.407 173.152 226.22 174.151 228.069C174.965 229.564 174.428 231.433 172.949 232.255C172.486 232.516 171.987 232.629 171.488 232.629L171.506 232.61ZM15.7428 211.234C15.1324 211.234 14.5036 211.047 13.9673 210.655C12.5987 209.665 12.2842 207.74 13.2645 206.357C14.5036 204.62 15.8353 202.901 17.2039 201.294C18.3136 200.004 20.237 199.874 21.5131 200.976C22.7893 202.097 22.9188 204.04 21.8276 205.33C20.5699 206.806 19.3678 208.357 18.2396 209.945C17.6477 210.786 16.7045 211.234 15.7613 211.234H15.7428ZM150.755 202.284C149.923 202.284 149.109 201.948 148.517 201.294C147.185 199.818 145.798 198.397 144.393 197.052C143.172 195.875 143.135 193.932 144.3 192.699C145.465 191.465 147.389 191.428 148.61 192.605C150.108 194.063 151.587 195.576 153.011 197.146C154.158 198.397 154.066 200.341 152.826 201.499C152.235 202.041 151.495 202.321 150.755 202.321V202.284ZM43.7994 188.214C42.6528 188.214 41.5615 187.56 41.0437 186.439C40.3224 184.907 40.9882 183.057 42.5048 182.347C44.3543 181.469 46.3147 180.628 48.2937 179.843C49.8472 179.227 51.6227 180.011 52.2331 181.6C52.8434 183.188 52.0666 184.963 50.4945 185.58C48.6451 186.308 46.8141 187.093 45.094 187.915C44.6687 188.121 44.2433 188.214 43.7994 188.214ZM120.997 181.674C120.664 181.674 120.313 181.618 119.98 181.506C118.186 180.871 116.318 180.292 114.45 179.806C112.822 179.376 111.823 177.713 112.249 176.05C112.674 174.406 114.32 173.397 115.966 173.827C118.019 174.35 120.054 174.985 122.033 175.695C123.623 176.256 124.455 178.031 123.882 179.638C123.438 180.908 122.254 181.693 121.015 181.693L120.997 181.674ZM78.9396 178.759C77.4045 178.759 76.0914 177.601 75.9064 176.031C75.7215 174.35 76.9237 172.818 78.5882 172.612C80.6041 172.388 82.657 172.182 84.7654 172.014C86.4485 171.883 87.9095 173.154 88.039 174.854C88.1685 176.555 86.9109 178.031 85.2278 178.162C83.1934 178.311 81.2144 178.517 79.2725 178.741C79.1615 178.741 79.0321 178.759 78.9211 178.759H78.9396Z" fill="#A5A5A5"/>
<path d="M312.363 196.119C365.968 196.119 409.424 152.216 409.424 98.0593C409.424 43.9027 365.968 0 312.363 0C258.758 0 215.302 43.9027 215.302 98.0593C215.302 152.216 258.758 196.119 312.363 196.119Z" fill="#FFD200"/>
<path opacity="0.46" d="M330.34 128.889C357.725 128.889 379.924 106.461 379.924 78.7944C379.924 51.1279 357.725 28.6997 330.34 28.6997C302.955 28.6997 280.755 51.1279 280.755 78.7944C280.755 106.461 302.955 128.889 330.34 128.889Z" fill="white"/>
<path opacity="0.46" d="M344.895 95.2192C359.87 95.2192 372.009 82.9553 372.009 67.8269C372.009 52.6985 359.87 40.4346 344.895 40.4346C329.921 40.4346 317.782 52.6985 317.782 67.8269C317.782 82.9553 329.921 95.2192 344.895 95.2192Z" fill="white"/>
<path d="M385.417 161.965L275.305 188.201L295.576 275.04L405.688 248.804L385.417 161.965Z" fill="#24285B"/>
<path d="M376.43 255.768L323.633 268.347L331.763 303.174L384.56 290.594L376.43 255.768Z" fill="#24285B"/>
<path opacity="0.75" d="M376.43 255.768L323.633 268.347L331.763 303.174L384.56 290.594L376.43 255.768Z" fill="white"/>
<path opacity="0.7" d="M409.002 99.0296C409.002 156.336 390.094 172.422 327.401 172.422C251.77 219.172 212.96 153.722 212.96 99.0296C212.96 44.337 256.845 0 310.981 0C365.117 0 409.002 44.337 409.002 99.0296Z" fill="#D9D9D9"/>
</svg>
