<svg width="17" height="17" viewBox="0 0 17 17" fill="none" xmlns="http://www.w3.org/2000/svg">
<g clip-path="url(#clip0_143_844)">
<path d="M13.0156 0H3.98438C1.78387 0 0 1.78387 0 3.98438V13.0156C0 15.2161 1.78387 17 3.98438 17H13.0156C15.2161 17 17 15.2161 17 13.0156V3.98438C17 1.78387 15.2161 0 13.0156 0Z" fill="white"/>
<path d="M13.0156 0H3.98438C1.78387 0 0 1.78387 0 3.98438V13.0156C0 15.2161 1.78387 17 3.98438 17H13.0156C15.2161 17 17 15.2161 17 13.0156V3.98438C17 1.78387 15.2161 0 13.0156 0Z" fill="#0A66C2"/>
<path d="M12.2662 14.4556H14.2099C14.2804 14.4556 14.3479 14.4277 14.3977 14.3779C14.4476 14.3281 14.4755 14.2605 14.4756 14.1901L14.4766 10.0834C14.4766 7.93694 14.014 6.28708 11.5057 6.28708C10.5522 6.25162 9.65295 6.74316 9.16771 7.56394C9.16534 7.56792 9.16173 7.57103 9.15743 7.57277C9.15313 7.57451 9.14838 7.5748 9.1439 7.57359C9.13942 7.57237 9.13547 7.56973 9.13263 7.56606C9.1298 7.56238 9.12824 7.55788 9.1282 7.55325V6.75086C9.1282 6.68041 9.10022 6.61285 9.0504 6.56303C9.00059 6.51322 8.93303 6.48523 8.86258 6.48523H7.01801C6.94756 6.48523 6.88 6.51322 6.83019 6.56303C6.78037 6.61285 6.75239 6.68041 6.75239 6.75086V14.1897C6.75239 14.2601 6.78037 14.3277 6.83019 14.3775C6.88 14.4273 6.94756 14.4553 7.01801 14.4553H8.96159C9.03204 14.4553 9.0996 14.4273 9.14942 14.3775C9.19923 14.3277 9.22722 14.2601 9.22722 14.1897V10.5126C9.22722 9.47285 9.42444 8.46593 10.7135 8.46593C11.9841 8.46593 12.0006 9.65567 12.0006 10.5799V14.19C12.0006 14.2605 12.0286 14.328 12.0784 14.3778C12.1282 14.4277 12.1958 14.4556 12.2662 14.4556ZM2.52344 3.95967C2.52344 4.74752 3.17203 5.39577 3.95994 5.39577C4.74765 5.39571 5.39584 4.74705 5.39584 3.95934C5.39571 3.17163 4.74745 2.52344 3.95967 2.52344C3.1717 2.52344 2.52344 3.17183 2.52344 3.95967ZM2.98556 14.4556H4.93173C5.00217 14.4556 5.06974 14.4277 5.11955 14.3778C5.16937 14.328 5.19735 14.2605 5.19735 14.19V6.75086C5.19735 6.68041 5.16937 6.61285 5.11955 6.56303C5.06974 6.51322 5.00217 6.48523 4.93173 6.48523H2.98556C2.91511 6.48523 2.84755 6.51322 2.79773 6.56303C2.74792 6.61285 2.71993 6.68041 2.71993 6.75086V14.19C2.71993 14.2605 2.74792 14.328 2.79773 14.3778C2.84755 14.4277 2.91511 14.4556 2.98556 14.4556Z" fill="white"/>
</g>
<defs>
<clipPath id="clip0_143_844">
<rect width="17" height="17" fill="white"/>
</clipPath>
</defs>
</svg>