<svg width="150" height="150" viewBox="0 0 150 150" fill="none" xmlns="http://www.w3.org/2000/svg">
<g opacity="0.4">
<path d="M36.45 59.9144C50.3463 56.6607 58.2851 62.3681 60.2782 71.1723C62.2712 79.9764 57.712 88.554 43.8585 91.7776C30.005 95.0012 10.1676 83.7007 9.97226 82.8637C9.77696 82.0268 22.5675 63.1387 36.45 59.9144Z" fill="#C8DA52"/>
<path d="M67.4464 30.232C75.8529 41.8209 73.6955 51.2378 66.3982 56.5749C59.101 61.9121 49.4117 61.0389 41.0214 49.5221C32.6312 38.0053 35.2944 15.2649 35.9797 14.8122C36.665 14.3594 59.0558 18.7007 67.4464 30.232Z" fill="#C8DA52"/>
<path d="M106.891 47.1488C99.5643 59.3815 89.9989 61.1179 82.2467 56.4799C74.4946 51.8418 71.5034 42.5984 78.8299 30.3657C86.1563 18.133 108.044 11.7455 108.854 12.1896C109.663 12.6336 114.217 34.9161 106.891 47.1488Z" fill="#C8DA52"/>
<path d="M106.711 90.0755C92.5959 88.1092 87.2666 79.9699 88.507 71.0261C89.7474 62.0823 97.1056 55.713 111.221 57.6793C125.336 59.6456 139.774 77.2805 139.665 78.1397C139.556 78.9988 120.841 92.0415 106.711 90.0755Z" fill="#C8DA52"/>
<path d="M85.3629 64.9218C85.5935 64.6383 85.7087 64.2782 85.6854 63.9135C85.6621 63.5488 85.502 63.2063 85.2371 62.9544C84.9722 62.7026 84.6221 62.56 84.2567 62.5551C83.8912 62.5502 83.5374 62.6834 83.2659 62.928L74.4703 72.1641L65.2346 63.383C64.9511 63.1524 64.591 63.0372 64.2263 63.0605C63.8616 63.0838 63.5191 63.2439 63.2672 63.5088C63.0154 63.7737 62.8728 64.1238 62.8679 64.4892C62.863 64.8547 62.9962 65.2085 63.2409 65.48L73.0867 74.8553L73.2726 82.2245L65.5242 74.8575C65.3855 74.7266 65.2225 74.6243 65.0443 74.5564C64.8661 74.4885 64.6763 74.4564 64.4857 74.4619C64.2951 74.4674 64.1075 74.5104 63.9335 74.5884C63.7595 74.6664 63.6026 74.7779 63.4717 74.9165C63.3408 75.0551 63.2385 75.2182 63.1707 75.3964C63.1028 75.5746 63.0707 75.7644 63.0762 75.955C63.0817 76.1455 63.1246 76.3332 63.2026 76.5072C63.2806 76.6811 63.3921 76.8381 63.5308 76.9689L73.3766 86.3443L74.6998 138.784C74.7095 139.169 74.8716 139.534 75.1505 139.799C75.4294 140.064 75.8023 140.208 76.187 140.198C76.5717 140.189 76.9368 140.026 77.202 139.748C77.4672 139.469 77.6107 139.096 77.601 138.711L76.2775 86.2565L85.6528 76.4107C85.8834 76.1272 85.9986 75.7672 85.9753 75.4024C85.952 75.0377 85.7919 74.6952 85.527 74.4434C85.2621 74.1915 84.912 74.0489 84.5466 74.044C84.1811 74.0391 83.8273 74.1723 83.5558 74.417L76.1742 82.1658L75.9879 74.7821L85.3629 64.9218Z" fill="#995F5B"/>
<path d="M113.347 115.47C112.962 115.48 112.597 115.642 112.332 115.921C112.066 116.199 111.923 116.572 111.933 116.957L112.459 137.831C112.469 138.216 112.631 138.581 112.91 138.847C113.189 139.112 113.562 139.255 113.947 139.246C114.331 139.236 114.696 139.074 114.962 138.795C115.227 138.516 115.37 138.143 115.361 137.758L114.834 116.884C114.824 116.499 114.662 116.134 114.383 115.869C114.104 115.604 113.731 115.46 113.347 115.47Z" fill="#995F5B"/>
<path d="M98.0934 114.418C103.693 113.115 106.827 115.402 107.686 118.937C108.544 122.471 106.658 125.93 101.073 127.232C95.4884 128.534 87.5205 123.974 87.454 123.642C87.3876 123.31 92.5087 115.72 98.0934 114.418Z" fill="#C8DA52"/>
<path d="M110.566 102.476C113.949 107.108 113.072 110.919 110.136 113.069C107.2 115.218 103.315 114.852 99.9036 110.221C96.4917 105.589 97.625 96.4303 97.9115 96.2779C98.198 96.1256 107.183 97.8439 110.566 102.476Z" fill="#C8DA52"/>
<path d="M126.457 109.275C123.519 114.197 119.661 114.89 116.551 113.023C113.441 111.156 112.23 107.442 115.168 102.52C118.107 97.5973 126.924 94.9652 127.22 95.2045C127.516 95.4438 129.381 104.338 126.457 109.275Z" fill="#C8DA52"/>
<path d="M126.356 126.551C120.675 125.751 118.531 122.481 119.036 118.883C119.54 115.284 122.495 112.728 128.176 113.513C133.856 114.299 139.668 121.41 139.618 121.745C139.569 122.08 132.037 127.336 126.356 126.551Z" fill="#C8DA52"/>
</g>
</svg>