<svg width="213" height="213" viewBox="0 0 213 213" fill="none" xmlns="http://www.w3.org/2000/svg">
<path d="M51.3788 84.2253C71.2021 79.5837 82.527 87.7256 85.3701 100.285C88.2132 112.844 81.7095 125.08 61.9472 129.679C42.1849 134.277 13.8863 118.157 13.6077 116.963C13.3291 115.769 31.5751 88.8249 51.3788 84.2253Z" fill="#C8DA52"/>
<path d="M95.5956 41.8827C107.588 58.4146 104.51 71.848 94.1004 79.4615C83.6908 87.075 69.8687 85.8294 57.8999 69.4004C45.9311 52.9715 49.7301 20.532 50.7077 19.8861C51.6854 19.2402 83.6262 25.4331 95.5956 41.8827Z" fill="#C8DA52"/>
<path d="M151.864 66.0148C141.412 83.465 127.767 85.9421 116.709 79.3259C105.65 72.7096 101.383 59.5236 111.834 42.0735C122.286 24.6233 153.509 15.5114 154.664 16.1448C155.819 16.7783 162.315 48.5647 151.864 66.0148Z" fill="#C8DA52"/>
<path d="M151.607 127.251C131.472 124.446 123.87 112.835 125.639 100.076C127.408 87.3178 137.905 78.2319 158.041 81.0369C178.176 83.8419 198.772 108.998 198.617 110.224C198.461 111.45 171.764 130.055 151.607 127.251Z" fill="#C8DA52"/>
<path d="M121.154 91.3685C121.483 90.964 121.647 90.4504 121.614 89.9301C121.581 89.4098 121.352 88.9212 120.974 88.5619C120.597 88.2027 120.097 87.9993 119.576 87.9923C119.054 87.9853 118.55 88.1753 118.162 88.5243L105.615 101.7L92.4405 89.1733C92.0361 88.8443 91.5224 88.68 91.0021 88.7133C90.4818 88.7465 89.9932 88.9749 89.634 89.3527C89.2747 89.7306 89.0713 90.2301 89.0643 90.7514C89.0574 91.2727 89.2474 91.7774 89.5964 92.1648L103.642 105.539L103.907 116.051L92.8535 105.542C92.6557 105.355 92.4231 105.209 92.169 105.112C91.9148 105.016 91.644 104.97 91.3722 104.978C91.1003 104.985 90.8326 105.047 90.5844 105.158C90.3362 105.269 90.1124 105.428 89.9257 105.626C89.739 105.824 89.593 106.056 89.4962 106.311C89.3994 106.565 89.3536 106.836 89.3614 107.107C89.3692 107.379 89.4305 107.647 89.5418 107.895C89.6531 108.143 89.8121 108.367 90.0099 108.554L104.055 121.928L105.943 196.735C105.957 197.284 106.188 197.804 106.586 198.183C106.984 198.561 107.515 198.766 108.064 198.752C108.613 198.738 109.134 198.507 109.512 198.109C109.891 197.711 110.095 197.179 110.081 196.63L108.193 121.803L121.567 107.758C121.896 107.353 122.061 106.84 122.027 106.319C121.994 105.799 121.766 105.31 121.388 104.951C121.01 104.592 120.511 104.388 119.989 104.381C119.468 104.375 118.963 104.565 118.576 104.914L108.046 115.967L107.78 105.434L121.154 91.3685Z" fill="#995F5B"/>
<path d="M161.073 163.476C160.525 163.49 160.004 163.721 159.625 164.119C159.247 164.517 159.042 165.049 159.056 165.598L159.808 195.376C159.821 195.924 160.053 196.445 160.451 196.823C160.849 197.202 161.38 197.407 161.929 197.393C162.478 197.379 162.999 197.148 163.377 196.75C163.755 196.352 163.96 195.82 163.946 195.271L163.195 165.493C163.181 164.944 162.95 164.424 162.552 164.045C162.154 163.667 161.622 163.462 161.073 163.476Z" fill="#995F5B"/>
<path d="M139.314 161.975C147.302 160.117 151.774 163.379 152.998 168.422C154.223 173.464 151.531 178.398 143.565 180.255C135.598 182.113 124.232 175.608 124.137 175.134C124.042 174.66 131.348 163.833 139.314 161.975Z" fill="#C8DA52"/>
<path d="M157.106 144.94C161.932 151.548 160.682 156.984 156.494 160.051C152.305 163.118 146.764 162.595 141.897 155.988C137.029 149.381 138.646 136.316 139.055 136.099C139.463 135.881 152.281 138.332 157.106 144.94Z" fill="#C8DA52"/>
<path d="M179.776 154.639C175.584 161.661 170.081 162.648 165.644 159.986C161.208 157.323 159.48 152.024 163.672 145.002C167.864 137.981 180.441 134.226 180.864 134.567C181.287 134.909 183.947 147.597 179.776 154.639Z" fill="#C8DA52"/>
<path d="M179.632 179.283C171.528 178.142 168.469 173.477 169.189 168.344C169.908 163.212 174.123 159.565 182.227 160.685C190.331 161.806 198.621 171.95 198.55 172.428C198.48 172.906 187.736 180.404 179.632 179.283Z" fill="#C8DA52"/>
</svg>
