<svg width="236" height="149" viewBox="0 0 236 149" fill="none" xmlns="http://www.w3.org/2000/svg">
<g filter="url(#filter0_i_120_66)">
<path d="M48.5 32.6267C48.5 22.6566 55.5104 14.0608 65.2768 12.0558L120.272 0.765359C122.737 0.259241 125.273 0.200387 127.76 0.591602L208.833 13.3493C217.125 14.6542 223.844 20.7724 225.917 28.9069L234.077 60.9159C235.008 64.5711 234.938 68.4097 233.874 72.0285L223.121 108.59C220.18 118.589 210.351 124.918 200.032 123.457L165 118.5H91.5H64.1149C60.7541 118.5 57.4424 119.307 54.458 120.852L31 133C23.8378 136.581 16.858 127.858 21.9231 121.655L24.5 118.5L42.03 101.7C46.163 97.7396 48.5 92.2632 48.5 86.5387V32.6267Z" fill="black"/>
<path d="M78.7017 72.5V54.3182H89.6037V56.2713H80.9034V62.4148H88.7869V64.3679H80.9034V72.5H78.7017ZM97.6293 72.7841C96.3982 72.7841 95.3181 72.4911 94.3888 71.9052C93.4656 71.3192 92.7435 70.4995 92.2227 69.446C91.7077 68.3925 91.4503 67.1615 91.4503 65.7528C91.4503 64.3324 91.7077 63.0924 92.2227 62.033C92.7435 60.9736 93.4656 60.1509 94.3888 59.565C95.3181 58.979 96.3982 58.6861 97.6293 58.6861C98.8603 58.6861 99.9375 58.979 100.861 59.565C101.79 60.1509 102.512 60.9736 103.027 62.033C103.548 63.0924 103.808 64.3324 103.808 65.7528C103.808 67.1615 103.548 68.3925 103.027 69.446C102.512 70.4995 101.79 71.3192 100.861 71.9052C99.9375 72.4911 98.8603 72.7841 97.6293 72.7841ZM97.6293 70.902C98.5644 70.902 99.3338 70.6623 99.9375 70.1829C100.541 69.7035 100.988 69.0732 101.278 68.2919C101.568 67.5107 101.713 66.6643 101.713 65.7528C101.713 64.8414 101.568 63.9921 101.278 63.2049C100.988 62.4177 100.541 61.7815 99.9375 61.2962C99.3338 60.8108 98.5644 60.5682 97.6293 60.5682C96.6941 60.5682 95.9247 60.8108 95.321 61.2962C94.7173 61.7815 94.2705 62.4177 93.9805 63.2049C93.6905 63.9921 93.5455 64.8414 93.5455 65.7528C93.5455 66.6643 93.6905 67.5107 93.9805 68.2919C94.2705 69.0732 94.7173 69.7035 95.321 70.1829C95.9247 70.6623 96.6941 70.902 97.6293 70.902ZM107.006 72.5V58.8636H109.031V60.9233H109.173C109.421 60.2486 109.871 59.7011 110.522 59.2809C111.173 58.8607 111.907 58.6506 112.724 58.6506C112.878 58.6506 113.07 58.6535 113.301 58.6594C113.532 58.6654 113.706 58.6742 113.825 58.6861V60.8168C113.754 60.799 113.591 60.7724 113.336 60.7369C113.088 60.6954 112.824 60.6747 112.546 60.6747C111.883 60.6747 111.292 60.8138 110.771 61.092C110.256 61.3642 109.847 61.743 109.546 62.2283C109.25 62.7077 109.102 63.2552 109.102 63.8707V72.5H107.006ZM126.926 72.5L121.955 54.3182H124.192L127.991 69.1264H128.169L132.04 54.3182H134.526L138.396 69.1264H138.574L142.374 54.3182H144.611L139.639 72.5H137.366L133.354 58.0114H133.212L129.199 72.5H126.926ZM146.215 72.5V58.8636H148.24V60.9233H148.382C148.63 60.2486 149.08 59.7011 149.731 59.2809C150.382 58.8607 151.116 58.6506 151.933 58.6506C152.087 58.6506 152.279 58.6535 152.51 58.6594C152.741 58.6654 152.915 58.6742 153.034 58.6861V60.8168C152.963 60.799 152.8 60.7724 152.545 60.7369C152.297 60.6954 152.033 60.6747 151.755 60.6747C151.092 60.6747 150.501 60.8138 149.98 61.092C149.465 61.3642 149.056 61.743 148.755 62.2283C148.459 62.7077 148.311 63.2552 148.311 63.8707V72.5H146.215ZM155.517 72.5V58.8636H157.612V72.5H155.517ZM156.583 56.5909C156.174 56.5909 155.822 56.4518 155.526 56.1737C155.236 55.8955 155.091 55.5611 155.091 55.1705C155.091 54.7798 155.236 54.4454 155.526 54.1673C155.822 53.8891 156.174 53.75 156.583 53.75C156.991 53.75 157.34 53.8891 157.63 54.1673C157.926 54.4454 158.074 54.7798 158.074 55.1705C158.074 55.5611 157.926 55.8955 157.63 56.1737C157.34 56.4518 156.991 56.5909 156.583 56.5909ZM167.38 58.8636V60.6392H160.313V58.8636H167.38ZM162.373 55.5966H164.468V68.5938C164.468 69.1856 164.554 69.6295 164.726 69.9254C164.903 70.2154 165.128 70.4107 165.4 70.5114C165.679 70.6061 165.972 70.6534 166.279 70.6534C166.51 70.6534 166.7 70.6416 166.848 70.6179C166.996 70.5883 167.114 70.5646 167.203 70.5469L167.629 72.429C167.487 72.4822 167.289 72.5355 167.034 72.5888C166.78 72.648 166.457 72.6776 166.066 72.6776C165.474 72.6776 164.894 72.5503 164.326 72.2958C163.764 72.0413 163.296 71.6536 162.924 71.1328C162.557 70.612 162.373 69.955 162.373 69.1619V55.5966ZM176.103 72.7841C174.789 72.7841 173.655 72.4941 172.703 71.9141C171.756 71.3281 171.025 70.5114 170.51 69.4638C170.001 68.4103 169.746 67.1851 169.746 65.7884C169.746 64.3916 170.001 63.1605 170.51 62.0952C171.025 61.0239 171.741 60.1894 172.658 59.5916C173.581 58.9879 174.659 58.6861 175.89 58.6861C176.6 58.6861 177.301 58.8045 177.994 59.0412C178.686 59.2779 179.316 59.6626 179.885 60.1953C180.453 60.7221 180.906 61.4205 181.243 62.2905C181.58 63.1605 181.749 64.2318 181.749 65.5043V66.392H171.238V64.581H179.618C179.618 63.8116 179.464 63.125 179.157 62.5213C178.855 61.9176 178.423 61.4412 177.861 61.092C177.304 60.7428 176.647 60.5682 175.89 60.5682C175.055 60.5682 174.333 60.7753 173.723 61.1896C173.12 61.598 172.655 62.1307 172.33 62.7876C172.004 63.4446 171.841 64.1489 171.841 64.9006V66.108C171.841 67.1378 172.019 68.0108 172.374 68.7269C172.735 69.4371 173.235 69.9787 173.874 70.3516C174.514 70.7185 175.256 70.902 176.103 70.902C176.653 70.902 177.15 70.825 177.594 70.6712C178.044 70.5114 178.432 70.2746 178.757 69.9609C179.083 69.6413 179.334 69.2448 179.512 68.7713L181.536 69.3395C181.323 70.026 180.965 70.6297 180.462 71.1506C179.959 71.6655 179.337 72.0679 178.597 72.358C177.858 72.642 177.026 72.7841 176.103 72.7841ZM184.936 72.5V58.8636H186.96V60.9233H187.102C187.351 60.2486 187.801 59.7011 188.452 59.2809C189.103 58.8607 189.837 58.6506 190.653 58.6506C190.807 58.6506 191 58.6535 191.231 58.6594C191.461 58.6654 191.636 58.6742 191.754 58.6861V60.8168C191.683 60.799 191.521 60.7724 191.266 60.7369C191.017 60.6954 190.754 60.6747 190.476 60.6747C189.813 60.6747 189.221 60.8138 188.7 61.092C188.185 61.3642 187.777 61.743 187.475 62.2283C187.179 62.7077 187.031 63.2552 187.031 63.8707V72.5H184.936ZM203.897 61.9176L202.015 62.4503C201.897 62.1366 201.722 61.8318 201.491 61.5359C201.266 61.234 200.958 60.9854 200.568 60.7901C200.177 60.5948 199.677 60.4972 199.067 60.4972C198.233 60.4972 197.538 60.6895 196.981 61.0742C196.431 61.453 196.156 61.9354 196.156 62.5213C196.156 63.0421 196.345 63.4535 196.724 63.7553C197.103 64.0572 197.694 64.3087 198.499 64.5099L200.523 65.0071C201.743 65.303 202.651 65.7558 203.249 66.3654C203.847 66.9691 204.146 67.7474 204.146 68.7003C204.146 69.4815 203.921 70.1799 203.471 70.7955C203.027 71.411 202.406 71.8963 201.607 72.2514C200.808 72.6065 199.878 72.7841 198.819 72.7841C197.428 72.7841 196.277 72.4822 195.365 71.8786C194.454 71.2749 193.877 70.393 193.634 69.233L195.623 68.7358C195.812 69.4697 196.17 70.0201 196.697 70.3871C197.23 70.754 197.925 70.9375 198.783 70.9375C199.76 70.9375 200.535 70.7304 201.109 70.3161C201.689 69.8958 201.979 69.3928 201.979 68.8068C201.979 68.3333 201.814 67.9368 201.482 67.6172C201.151 67.2917 200.642 67.049 199.955 66.8892L197.683 66.3565C196.434 66.0606 195.516 65.6019 194.93 64.9805C194.35 64.3531 194.06 63.5689 194.06 62.6278C194.06 61.8584 194.276 61.1778 194.708 60.5859C195.146 59.9941 195.741 59.5295 196.493 59.1921C197.25 58.8548 198.109 58.6861 199.067 58.6861C200.417 58.6861 201.476 58.982 202.246 59.5739C203.021 60.1657 203.571 60.947 203.897 61.9176Z" fill="white"/>
</g>
<defs>
<filter id="filter0_i_120_66" x="20.1935" y="0.336334" width="214.534" height="137.498" filterUnits="userSpaceOnUse" color-interpolation-filters="sRGB">
<feFlood flood-opacity="0" result="BackgroundImageFix"/>
<feBlend mode="normal" in="SourceGraphic" in2="BackgroundImageFix" result="shape"/>
<feColorMatrix in="SourceAlpha" type="matrix" values="0 0 0 0 0 0 0 0 0 0 0 0 0 0 0 0 0 0 127 0" result="hardAlpha"/>
<feOffset dy="4"/>
<feGaussianBlur stdDeviation="2"/>
<feComposite in2="hardAlpha" operator="arithmetic" k2="-1" k3="1"/>
<feColorMatrix type="matrix" values="0 0 0 0 0 0 0 0 0 0 0 0 0 0 0 0 0 0 0.25 0"/>
<feBlend mode="normal" in2="shape" result="effect1_innerShadow_120_66"/>
</filter>
</defs>
</svg>
