<svg width="82" height="22" viewBox="0 0 82 22" fill="none" xmlns="http://www.w3.org/2000/svg">
<path d="M1.58523 18V4.90909H3.17045V11.4034H3.32386L9.20455 4.90909H11.2756L5.77841 10.8153L11.2756 18H9.35795L4.80682 11.9148L3.17045 13.7557V18H1.58523ZM14.6314 12.0938V18H13.1229V8.18182H14.5803V9.71591H14.7081C14.9382 9.21733 15.2876 8.81676 15.7564 8.5142C16.2251 8.20739 16.8303 8.05398 17.5717 8.05398C18.2365 8.05398 18.8182 8.19034 19.3168 8.46307C19.8153 8.73153 20.2031 9.14062 20.4801 9.69034C20.7571 10.2358 20.8956 10.9261 20.8956 11.7614V18H19.3871V11.8636C19.3871 11.0923 19.1868 10.4915 18.7862 10.0611C18.3857 9.62642 17.8359 9.40909 17.1371 9.40909C16.6555 9.40909 16.2251 9.51349 15.8459 9.7223C15.4709 9.93111 15.1747 10.2358 14.9574 10.6364C14.7401 11.0369 14.6314 11.5227 14.6314 12.0938ZM27.6408 18.2045C26.7544 18.2045 25.9767 17.9936 25.3077 17.5717C24.6429 17.1499 24.123 16.5597 23.748 15.8011C23.3773 15.0426 23.1919 14.1562 23.1919 13.142C23.1919 12.1193 23.3773 11.2266 23.748 10.4638C24.123 9.70099 24.6429 9.10866 25.3077 8.68679C25.9767 8.26491 26.7544 8.05398 27.6408 8.05398C28.5272 8.05398 29.3027 8.26491 29.9675 8.68679C30.6365 9.10866 31.1564 9.70099 31.5272 10.4638C31.9022 11.2266 32.0897 12.1193 32.0897 13.142C32.0897 14.1562 31.9022 15.0426 31.5272 15.8011C31.1564 16.5597 30.6365 17.1499 29.9675 17.5717C29.3027 17.9936 28.5272 18.2045 27.6408 18.2045ZM27.6408 16.8494C28.3141 16.8494 28.8681 16.6768 29.3027 16.3317C29.7374 15.9865 30.0591 15.5327 30.2679 14.9702C30.4767 14.4077 30.5811 13.7983 30.5811 13.142C30.5811 12.4858 30.4767 11.8743 30.2679 11.3075C30.0591 10.7408 29.7374 10.2827 29.3027 9.93324C28.8681 9.58381 28.3141 9.40909 27.6408 9.40909C26.9675 9.40909 26.4135 9.58381 25.9789 9.93324C25.5442 10.2827 25.2225 10.7408 25.0137 11.3075C24.8049 11.8743 24.7005 12.4858 24.7005 13.142C24.7005 13.7983 24.8049 14.4077 25.0137 14.9702C25.2225 15.5327 25.5442 15.9865 25.9789 16.3317C26.4135 16.6768 26.9675 16.8494 27.6408 16.8494ZM36.2828 18L33.2914 8.18182H34.8766L36.9988 15.6989H37.101L39.1976 8.18182H40.8084L42.8794 15.6733H42.9817L45.1039 8.18182H46.6891L43.6976 18H42.2147L40.0669 10.4574H39.9135L37.7658 18H36.2828ZM59.9334 13.9858V8.18182H61.4419V18H59.9334V16.3381H59.8311C59.601 16.8366 59.2431 17.2607 58.7573 17.6101C58.2715 17.9553 57.6578 18.1278 56.9164 18.1278C56.3027 18.1278 55.7573 17.9936 55.28 17.7251C54.8027 17.4524 54.4277 17.0433 54.155 16.4979C53.8823 15.9482 53.7459 15.2557 53.7459 14.4205V8.18182H55.2544V14.3182C55.2544 15.0341 55.4547 15.6051 55.8553 16.0312C56.2601 16.4574 56.7757 16.6705 57.4022 16.6705C57.7772 16.6705 58.1586 16.5746 58.5463 16.3828C58.9384 16.1911 59.2665 15.897 59.5307 15.5007C59.7992 15.1044 59.9334 14.5994 59.9334 13.9858ZM71.1594 10.3807L69.8043 10.7642C69.7191 10.5384 69.5934 10.3189 69.4272 10.1058C69.2653 9.88849 69.0437 9.70952 68.7624 9.56889C68.4812 9.42827 68.1211 9.35795 67.6822 9.35795C67.0813 9.35795 66.5806 9.49645 66.18 9.77344C65.7837 10.0462 65.5856 10.3935 65.5856 10.8153C65.5856 11.1903 65.7219 11.4865 65.9947 11.7038C66.2674 11.9212 66.6935 12.1023 67.2731 12.2472L68.7305 12.6051C69.6083 12.8182 70.2624 13.1442 70.6928 13.5831C71.1232 14.0178 71.3384 14.5781 71.3384 15.2642C71.3384 15.8267 71.1765 16.3295 70.8526 16.7727C70.533 17.2159 70.0856 17.5653 69.5103 17.821C68.935 18.0767 68.266 18.2045 67.5032 18.2045C66.5018 18.2045 65.6729 17.9872 65.0167 17.5526C64.3604 17.1179 63.945 16.483 63.7702 15.6477L65.2021 15.2898C65.3384 15.8182 65.5962 16.2145 65.9755 16.4787C66.359 16.7429 66.8597 16.875 67.4776 16.875C68.1808 16.875 68.739 16.7259 69.1523 16.4276C69.57 16.125 69.7788 15.7628 69.7788 15.3409C69.7788 15 69.6594 14.7145 69.4208 14.4844C69.1822 14.25 68.8157 14.0753 68.3214 13.9602L66.685 13.5767C65.7859 13.3636 65.1254 13.0334 64.7035 12.5859C64.2859 12.1342 64.0771 11.5696 64.0771 10.892C64.0771 10.3381 64.2326 9.84801 64.5437 9.42188C64.859 8.99574 65.2873 8.66122 65.8285 8.41832C66.3739 8.17543 66.9918 8.05398 67.6822 8.05398C68.6538 8.05398 69.4165 8.26705 69.9705 8.69318C70.5288 9.11932 70.9251 9.68182 71.1594 10.3807ZM75.5779 14.3182V14.2415C75.5865 13.4276 75.6717 12.7798 75.8336 12.2983C75.9956 11.8168 76.2257 11.4268 76.524 11.1286C76.8223 10.8303 77.1802 10.5554 77.5978 10.304C77.8493 10.1506 78.0751 9.96946 78.2754 9.76065C78.4757 9.54758 78.6333 9.30256 78.7484 9.02557C78.8677 8.74858 78.9274 8.44176 78.9274 8.10511C78.9274 7.6875 78.8294 7.32528 78.6333 7.01847C78.4373 6.71165 78.1752 6.47514 77.8471 6.30895C77.519 6.14276 77.1547 6.05966 76.7541 6.05966C76.4047 6.05966 76.068 6.1321 75.7441 6.27699C75.4203 6.42187 75.1497 6.64986 74.9324 6.96094C74.715 7.27202 74.5893 7.67898 74.5552 8.18182H72.9444C72.9785 7.45739 73.166 6.83736 73.5069 6.32173C73.8521 5.80611 74.3059 5.41193 74.8684 5.1392C75.4352 4.86648 76.0637 4.73011 76.7541 4.73011C77.5041 4.73011 78.1561 4.87926 78.7101 5.17756C79.2683 5.47585 79.6987 5.88494 80.0012 6.40483C80.3081 6.92472 80.4615 7.51704 80.4615 8.18182C80.4615 8.65057 80.389 9.07457 80.2441 9.45384C80.1035 9.8331 79.899 10.1719 79.6305 10.4702C79.3663 10.7685 79.0467 11.0327 78.6717 11.2628C78.2967 11.4972 77.9963 11.7443 77.7704 12.0043C77.5446 12.2599 77.3805 12.5646 77.2782 12.9183C77.176 13.272 77.1206 13.7131 77.112 14.2415V14.3182H75.5779ZM76.3961 18.1023C76.0808 18.1023 75.8102 17.9893 75.5843 17.7635C75.3585 17.5376 75.2456 17.267 75.2456 16.9517C75.2456 16.6364 75.3585 16.3658 75.5843 16.1399C75.8102 15.9141 76.0808 15.8011 76.3961 15.8011C76.7115 15.8011 76.9821 15.9141 77.2079 16.1399C77.4338 16.3658 77.5467 16.6364 77.5467 16.9517C77.5467 17.1605 77.4934 17.3523 77.3869 17.527C77.2846 17.7017 77.1461 17.8423 76.9714 17.9489C76.801 18.0511 76.6092 18.1023 76.3961 18.1023Z" fill="black"/>
</svg>
