<svg width="224" height="144" viewBox="0 0 224 144" fill="none" xmlns="http://www.w3.org/2000/svg">
<g filter="url(#filter0_i_120_65)">
<path d="M12.6691 19.3167C9.79419 16.062 12.3256 10.9605 16.6562 11.2813C16.9683 11.3044 17.2773 11.3577 17.5791 11.4404L41.1003 17.8898C43.9605 18.6741 46.9545 18.8436 49.8849 18.3872L99.1207 10.7193C100.473 10.5088 101.843 10.4308 103.21 10.4867L181.054 13.669C183.925 13.7864 186.788 13.286 189.449 12.2018L208.02 4.63434C212.921 2.63711 218.242 6.3949 217.998 11.682C217.895 13.913 216.77 15.972 214.948 17.2633L202.697 25.9448C195.702 30.902 192.423 39.6137 194.413 47.953L200.016 71.4295C200.476 73.3584 200.661 75.3428 200.564 77.3236L199.313 103.07C199.183 105.741 200.044 108.366 201.732 110.44L205.496 115.068C211.098 121.955 204.417 131.938 195.914 129.386L181.301 125.276L140.205 118.885C139.138 118.719 138.059 118.635 136.978 118.635H71.4699H47.2639C42.9553 118.635 38.751 119.96 35.2212 122.431L20.0938 133.02C13.569 136.586 6.23638 129.851 9.23522 123.047L15.1286 109.676C15.843 108.055 16.212 106.303 16.212 104.532V77.9063C16.212 75.544 16.6106 73.1986 17.391 70.969L26.6723 44.4511C28.1091 40.3458 27.2157 35.7845 24.3361 32.5246L12.6691 19.3167Z" fill="#2699EB"/>
<path d="M43.2017 82V63.8182H54.1037V65.7713H45.4034V71.9148H53.2869V73.8679H45.4034V82H43.2017ZM62.1293 82.2841C60.8982 82.2841 59.8181 81.9911 58.8888 81.4052C57.9656 80.8192 57.2435 79.9995 56.7227 78.946C56.2077 77.8925 55.9503 76.6615 55.9503 75.2528C55.9503 73.8324 56.2077 72.5924 56.7227 71.533C57.2435 70.4736 57.9656 69.6509 58.8888 69.065C59.8181 68.479 60.8982 68.1861 62.1293 68.1861C63.3603 68.1861 64.4375 68.479 65.3608 69.065C66.29 69.6509 67.0121 70.4736 67.527 71.533C68.0478 72.5924 68.3082 73.8324 68.3082 75.2528C68.3082 76.6615 68.0478 77.8925 67.527 78.946C67.0121 79.9995 66.29 80.8192 65.3608 81.4052C64.4375 81.9911 63.3603 82.2841 62.1293 82.2841ZM62.1293 80.402C63.0644 80.402 63.8338 80.1623 64.4375 79.6829C65.0412 79.2035 65.488 78.5732 65.7781 77.7919C66.0681 77.0107 66.2131 76.1643 66.2131 75.2528C66.2131 74.3414 66.0681 73.4921 65.7781 72.7049C65.488 71.9177 65.0412 71.2815 64.4375 70.7962C63.8338 70.3108 63.0644 70.0682 62.1293 70.0682C61.1941 70.0682 60.4247 70.3108 59.821 70.7962C59.2173 71.2815 58.7705 71.9177 58.4805 72.7049C58.1905 73.4921 58.0455 74.3414 58.0455 75.2528C58.0455 76.1643 58.1905 77.0107 58.4805 77.7919C58.7705 78.5732 59.2173 79.2035 59.821 79.6829C60.4247 80.1623 61.1941 80.402 62.1293 80.402ZM71.5065 82V68.3636H73.5306V70.4233H73.6727C73.9213 69.7486 74.3711 69.2011 75.0221 68.7809C75.6731 68.3607 76.407 68.1506 77.2238 68.1506C77.3777 68.1506 77.57 68.1535 77.8009 68.1594C78.0317 68.1654 78.2063 68.1742 78.3247 68.1861V70.3168C78.2536 70.299 78.0909 70.2724 77.8364 70.2369C77.5878 70.1954 77.3244 70.1747 77.0463 70.1747C76.3834 70.1747 75.7915 70.3138 75.2707 70.592C74.7558 70.8642 74.3474 71.243 74.0455 71.7283C73.7496 72.2077 73.6017 72.7552 73.6017 73.3707V82H71.5065ZM88.1236 82V63.8182H94.267C95.6875 63.8182 96.8535 64.0608 97.7649 64.5462C98.6764 65.0256 99.3511 65.6855 99.7891 66.5259C100.227 67.3664 100.446 68.3222 100.446 69.3935C100.446 70.4647 100.227 71.4147 99.7891 72.2433C99.3511 73.0719 98.6793 73.7229 97.7738 74.1964C96.8683 74.6639 95.7112 74.8977 94.3026 74.8977H89.331V72.9091H94.2315C95.2022 72.9091 95.9834 72.767 96.5753 72.483C97.1731 72.1989 97.6051 71.7964 97.8714 71.2756C98.1437 70.7488 98.2798 70.1214 98.2798 69.3935C98.2798 68.6655 98.1437 68.0292 97.8714 67.4847C97.5992 66.9402 97.1642 66.52 96.5664 66.2241C95.9686 65.9222 95.1785 65.7713 94.196 65.7713H90.3253V82H88.1236ZM96.6818 73.8324L101.156 82H98.5994L94.196 73.8324H96.6818ZM109.402 82.2841C108.088 82.2841 106.954 81.9941 106.001 81.4141C105.054 80.8281 104.323 80.0114 103.809 78.9638C103.3 77.9103 103.045 76.6851 103.045 75.2884C103.045 73.8916 103.3 72.6605 103.809 71.5952C104.323 70.5239 105.04 69.6894 105.957 69.0916C106.88 68.4879 107.957 68.1861 109.188 68.1861C109.899 68.1861 110.6 68.3045 111.293 68.5412C111.985 68.7779 112.615 69.1626 113.184 69.6953C113.752 70.2221 114.204 70.9205 114.542 71.7905C114.879 72.6605 115.048 73.7318 115.048 75.0043V75.892H104.536V74.081H112.917C112.917 73.3116 112.763 72.625 112.456 72.0213C112.154 71.4176 111.722 70.9412 111.159 70.592C110.603 70.2428 109.946 70.0682 109.188 70.0682C108.354 70.0682 107.632 70.2753 107.022 70.6896C106.419 71.098 105.954 71.6307 105.628 72.2876C105.303 72.9446 105.14 73.6489 105.14 74.4006V75.608C105.14 76.6378 105.318 77.5108 105.673 78.2269C106.034 78.9371 106.534 79.4787 107.173 79.8516C107.812 80.2185 108.555 80.402 109.402 80.402C109.952 80.402 110.449 80.325 110.893 80.1712C111.343 80.0114 111.73 79.7746 112.056 79.4609C112.382 79.1413 112.633 78.7448 112.811 78.2713L114.835 78.8395C114.622 79.526 114.264 80.1297 113.761 80.6506C113.257 81.1655 112.636 81.5679 111.896 81.858C111.156 82.142 110.325 82.2841 109.402 82.2841ZM122.248 82.3196C121.384 82.3196 120.599 82.1568 119.895 81.8313C119.191 81.4999 118.632 81.0234 118.217 80.402C117.803 79.7746 117.596 79.017 117.596 78.1293C117.596 77.348 117.75 76.7147 118.057 76.2294C118.365 75.7382 118.777 75.3535 119.291 75.0753C119.806 74.7971 120.375 74.59 120.996 74.4538C121.623 74.3118 122.254 74.1993 122.887 74.1165C123.716 74.0099 124.387 73.93 124.902 73.8768C125.423 73.8176 125.802 73.7199 126.039 73.5838C126.281 73.4477 126.403 73.2109 126.403 72.8736V72.8026C126.403 71.9266 126.163 71.246 125.684 70.7607C125.21 70.2753 124.491 70.0327 123.526 70.0327C122.526 70.0327 121.742 70.2517 121.174 70.6896C120.605 71.1276 120.206 71.5952 119.975 72.0923L117.986 71.3821C118.342 70.5535 118.815 69.9084 119.407 69.4467C120.005 68.9792 120.656 68.6536 121.36 68.4702C122.07 68.2808 122.769 68.1861 123.455 68.1861C123.893 68.1861 124.396 68.2393 124.964 68.3459C125.539 68.4465 126.092 68.6566 126.625 68.9762C127.163 69.2958 127.61 69.7782 127.965 70.4233C128.32 71.0684 128.498 71.9325 128.498 73.0156V82H126.403V80.1534H126.296C126.154 80.4493 125.917 80.766 125.586 81.1033C125.254 81.4407 124.813 81.7277 124.263 81.9645C123.713 82.2012 123.041 82.3196 122.248 82.3196ZM122.567 80.4375C123.396 80.4375 124.094 80.2747 124.663 79.9492C125.237 79.6237 125.669 79.2035 125.959 78.6886C126.255 78.1737 126.403 77.6321 126.403 77.0639V75.1463C126.314 75.2528 126.119 75.3505 125.817 75.4393C125.521 75.5221 125.177 75.5961 124.787 75.6612C124.402 75.7204 124.026 75.7737 123.659 75.821C123.298 75.8625 123.005 75.898 122.78 75.9276C122.236 75.9986 121.727 76.114 121.253 76.2738C120.786 76.4277 120.407 76.6615 120.117 76.9751C119.833 77.2829 119.691 77.7031 119.691 78.2358C119.691 78.9638 119.96 79.5142 120.499 79.8871C121.043 80.254 121.733 80.4375 122.567 80.4375ZM137.471 82.2841C136.335 82.2841 135.331 81.997 134.461 81.4229C133.591 80.8429 132.911 80.0262 132.42 78.9727C131.928 77.9132 131.683 76.6615 131.683 75.2173C131.683 73.785 131.928 72.5421 132.42 71.4886C132.911 70.4351 133.594 69.6213 134.47 69.0472C135.346 68.4731 136.358 68.1861 137.507 68.1861C138.394 68.1861 139.096 68.334 139.611 68.63C140.131 68.92 140.528 69.2514 140.8 69.6243C141.078 69.9912 141.294 70.2931 141.448 70.5298H141.626V63.8182H143.721V82H141.697V79.9048H141.448C141.294 80.1534 141.075 80.4671 140.791 80.8459C140.507 81.2187 140.102 81.5531 139.575 81.8491C139.048 82.1391 138.347 82.2841 137.471 82.2841ZM137.755 80.402C138.596 80.402 139.306 80.183 139.886 79.745C140.466 79.3011 140.907 78.6886 141.209 77.9073C141.51 77.1201 141.661 76.2116 141.661 75.1818C141.661 74.1638 141.513 73.2731 141.218 72.5096C140.922 71.7402 140.484 71.1424 139.904 70.7163C139.324 70.2842 138.607 70.0682 137.755 70.0682C136.867 70.0682 136.128 70.296 135.536 70.7518C134.95 71.2016 134.509 71.8142 134.213 72.5895C133.923 73.3589 133.778 74.223 133.778 75.1818C133.778 76.1525 133.926 77.0343 134.222 77.8274C134.524 78.6146 134.968 79.242 135.553 79.7095C136.145 80.1712 136.879 80.402 137.755 80.402ZM153.567 82.2841C152.253 82.2841 151.119 81.9941 150.166 81.4141C149.219 80.8281 148.488 80.0114 147.974 78.9638C147.465 77.9103 147.21 76.6851 147.21 75.2884C147.21 73.8916 147.465 72.6605 147.974 71.5952C148.488 70.5239 149.205 69.6894 150.122 69.0916C151.045 68.4879 152.122 68.1861 153.354 68.1861C154.064 68.1861 154.765 68.3045 155.458 68.5412C156.15 68.7779 156.78 69.1626 157.349 69.6953C157.917 70.2221 158.369 70.9205 158.707 71.7905C159.044 72.6605 159.213 73.7318 159.213 75.0043V75.892H148.702V74.081H157.082C157.082 73.3116 156.928 72.625 156.621 72.0213C156.319 71.4176 155.887 70.9412 155.324 70.592C154.768 70.2428 154.111 70.0682 153.354 70.0682C152.519 70.0682 151.797 70.2753 151.187 70.6896C150.584 71.098 150.119 71.6307 149.794 72.2876C149.468 72.9446 149.305 73.6489 149.305 74.4006V75.608C149.305 76.6378 149.483 77.5108 149.838 78.2269C150.199 78.9371 150.699 79.4787 151.338 79.8516C151.977 80.2185 152.72 80.402 153.567 80.402C154.117 80.402 154.614 80.325 155.058 80.1712C155.508 80.0114 155.896 79.7746 156.221 79.4609C156.547 79.1413 156.798 78.7448 156.976 78.2713L159 78.8395C158.787 79.526 158.429 80.1297 157.926 80.6506C157.423 81.1655 156.801 81.5679 156.061 81.858C155.321 82.142 154.49 82.2841 153.567 82.2841ZM162.4 82V68.3636H164.424V70.4233H164.566C164.815 69.7486 165.265 69.2011 165.916 68.7809C166.567 68.3607 167.301 68.1506 168.117 68.1506C168.271 68.1506 168.464 68.1535 168.694 68.1594C168.925 68.1654 169.1 68.1742 169.218 68.1861V70.3168C169.147 70.299 168.984 70.2724 168.73 70.2369C168.481 70.1954 168.218 70.1747 167.94 70.1747C167.277 70.1747 166.685 70.3138 166.164 70.592C165.649 70.8642 165.241 71.243 164.939 71.7283C164.643 72.2077 164.495 72.7552 164.495 73.3707V82H162.4ZM181.361 71.4176L179.479 71.9503C179.36 71.6366 179.186 71.3318 178.955 71.0359C178.73 70.734 178.422 70.4854 178.032 70.2901C177.641 70.0948 177.141 69.9972 176.531 69.9972C175.697 69.9972 175.001 70.1895 174.445 70.5742C173.895 70.953 173.619 71.4354 173.619 72.0213C173.619 72.5421 173.809 72.9535 174.188 73.2553C174.566 73.5572 175.158 73.8087 175.963 74.0099L177.987 74.5071C179.207 74.803 180.115 75.2558 180.713 75.8654C181.311 76.4691 181.609 77.2474 181.609 78.2003C181.609 78.9815 181.385 79.6799 180.935 80.2955C180.491 80.911 179.869 81.3963 179.07 81.7514C178.271 82.1065 177.342 82.2841 176.283 82.2841C174.892 82.2841 173.741 81.9822 172.829 81.3786C171.918 80.7749 171.341 79.893 171.098 78.733L173.087 78.2358C173.276 78.9697 173.634 79.5201 174.161 79.8871C174.694 80.254 175.389 80.4375 176.247 80.4375C177.224 80.4375 177.999 80.2304 178.573 79.8161C179.153 79.3958 179.443 78.8928 179.443 78.3068C179.443 77.8333 179.278 77.4368 178.946 77.1172C178.615 76.7917 178.106 76.549 177.419 76.3892L175.146 75.8565C173.898 75.5606 172.98 75.1019 172.394 74.4805C171.814 73.8531 171.524 73.0689 171.524 72.1278C171.524 71.3584 171.74 70.6778 172.172 70.0859C172.61 69.4941 173.205 69.0295 173.957 68.6921C174.714 68.3548 175.573 68.1861 176.531 68.1861C177.881 68.1861 178.94 68.482 179.71 69.0739C180.485 69.6657 181.035 70.447 181.361 71.4176Z" fill="white"/>
</g>
<defs>
<filter id="filter0_i_120_65" x="8.54358" y="4.09" width="209.462" height="133.917" filterUnits="userSpaceOnUse" color-interpolation-filters="sRGB">
<feFlood flood-opacity="0" result="BackgroundImageFix"/>
<feBlend mode="normal" in="SourceGraphic" in2="BackgroundImageFix" result="shape"/>
<feColorMatrix in="SourceAlpha" type="matrix" values="0 0 0 0 0 0 0 0 0 0 0 0 0 0 0 0 0 0 127 0" result="hardAlpha"/>
<feOffset dy="4"/>
<feGaussianBlur stdDeviation="2"/>
<feComposite in2="hardAlpha" operator="arithmetic" k2="-1" k3="1"/>
<feColorMatrix type="matrix" values="0 0 0 0 0 0 0 0 0 0 0 0 0 0 0 0 0 0 0.25 0"/>
<feBlend mode="normal" in2="shape" result="effect1_innerShadow_120_65"/>
</filter>
</defs>
</svg>
