<svg width="415" height="311" viewBox="0 0 415 311" fill="none" xmlns="http://www.w3.org/2000/svg">
<path fill-rule="evenodd" clip-rule="evenodd" d="M115.778 229.212C117.609 231.327 120.312 232.897 122.386 234.831C124.564 236.863 126.928 238.638 129.097 240.645C138.667 228.958 151.777 221.791 163.134 212.093C168.518 207.495 172.485 201.258 175.388 194.858C176.876 191.577 177.976 188.199 178.836 184.704C179.224 183.129 179.602 181.56 179.856 179.964C180.163 178.031 180.242 177.867 181.547 176.358C182.109 175.709 183.197 173.812 184.297 174.021C185.223 174.197 186.917 177.014 187.502 177.71C190.316 181.056 193.045 184.503 196.008 187.72C200.541 192.642 204.667 197.485 208.876 202.701C217.486 213.374 226.773 223.42 236.145 233.462C236.84 234.207 238.46 236.391 239.459 236.685C240.673 237.041 242.646 235.553 243.869 234.721C246.821 232.714 249.147 230.228 251.67 227.74C256.594 222.884 259.928 216.067 262.171 209.582C263.514 205.7 264.386 201.675 265.772 197.806C266.35 196.194 267.659 194.212 266.994 192.808C266.796 192.389 265.537 191.276 265.092 191.191C264.567 191.091 263.691 191.81 263.509 191.76C261.766 191.284 262.733 189.461 261.697 188.48C261.109 187.924 258.12 188.005 257.228 187.7C253.965 186.581 251.038 184.448 247.953 183.174C235.04 177.844 221.969 172.658 210.821 163.953C207.93 161.696 206.009 160 202.56 158.541C199.073 157.066 195.569 155.751 192.012 154.464C188.873 153.329 185.718 152.265 182.476 151.451C178.97 150.572 173.997 149.456 170.494 150.589C163.616 152.815 161.394 158.478 158.655 164.452C154.949 172.535 150.468 180.183 145.61 187.623C136.264 201.937 124.898 214.782 115.778 229.212Z" fill="#FF5678"/>
<path fill-rule="evenodd" clip-rule="evenodd" d="M322.938 102.666C323.317 102.474 326.272 103.676 326.768 103.86C328.749 104.595 330.616 105.815 332.482 106.808C331.052 108.548 329.621 110.288 328.19 112.028C326.788 108.591 324.986 105.755 322.938 102.666ZM321.963 124.05C322.449 124.104 318.34 133.972 317.86 135.079C316.114 139.109 314.28 143.099 312.511 147.119C310.796 151.014 308.622 154.598 306.431 158.236C304.557 161.348 302.629 166.178 299.803 168.483C301.587 160.571 301.352 151.474 306.472 144.831C311.778 137.944 317.025 131.219 321.963 124.05ZM115.778 229.563C123.708 217.015 133.635 205.915 141.904 193.592C146.534 186.692 151.041 179.703 154.938 172.358C157.773 167.015 159.535 159.392 163.914 155.307C165.844 153.508 167.905 151.746 170.494 150.94C174.038 149.837 178.916 150.93 182.476 151.803C189.109 153.428 195.589 155.951 201.872 158.602C208.245 161.29 213.682 166.118 219.44 169.998C225.617 174.16 232.303 177.192 239.224 179.846C245.249 182.157 250.61 185.474 256.603 187.8C257.798 188.264 260.235 188.196 261.237 188.801C262.316 189.451 261.891 191.373 263.202 192.082C263.793 192.402 263.99 191.243 264.444 191.262C264.999 191.285 265.506 191.936 266.041 192.348C268.219 194.027 266.884 195.147 266.022 197.458C263.21 204.986 261.7 212.646 257.752 219.754C254.507 225.596 249.862 230.831 244.393 234.699C243.561 235.288 240.85 237.569 239.873 237.417C238.994 237.281 237.206 234.946 236.599 234.312C233.845 231.434 231.328 228.339 228.575 225.457C224.322 221.003 220.228 216.429 216.101 211.914C211.31 206.673 207.07 200.735 202.754 195.134C200.769 192.558 198.214 190.46 196.008 188.071C193.041 184.859 190.316 181.406 187.502 178.061C186.651 177.048 185.224 174.459 183.901 174.489C182.974 174.51 181.339 176.692 180.854 177.375C179.051 179.917 179.059 184.505 178.163 187.677C175.975 195.412 172.03 202.966 166.62 208.935C161.241 214.87 154.35 219.091 147.987 223.861C141.094 229.03 134.564 234.32 129.097 240.996C126.928 238.989 124.564 237.213 122.386 235.182C120.311 233.248 117.608 231.678 115.778 229.563ZM217.854 265.06C216.312 265.076 213.701 266.024 212.322 265.453C216.413 260.93 220.17 257.05 225.346 253.735C230.717 250.296 236.07 246.887 241.287 243.218C251.8 235.824 259.533 227.056 263.924 214.743C265.055 211.573 265.812 208.247 266.641 204.988C267.087 203.232 267.974 195.02 269.482 194.311C270.375 193.89 277.094 198.609 278.159 199.197C280.648 200.573 283.146 201.64 285.72 202.716C291.251 205.03 296.954 206.795 302.82 208.269C309.853 210.036 314.643 207.112 319 201.589C323.942 195.323 328.05 188.253 332.569 181.673C334.624 178.68 336.327 175.692 337.844 172.391C338.838 170.231 342.777 164.403 341.416 162.102C337.532 165.056 336.135 170.931 333.489 174.887C330.192 179.817 326.476 184.465 323.162 189.391C320.375 193.533 317.531 198.552 313.414 201.53C309.792 204.149 306.351 203.344 302.453 202.166C297.729 200.74 292.832 200.037 288.202 198.268C283.192 196.354 278.451 193.638 273.563 191.424C271.284 190.391 268.555 189.805 266.408 188.517C264.557 187.408 264.833 186.823 264.697 184.462C264.538 181.707 264.355 178.95 264.233 176.193C264.152 174.34 265.154 171.828 264.474 170.445C270.024 171.407 275.448 172.694 280.959 173.833C283.976 174.457 286.885 175.228 289.933 175.718C291.095 175.905 292.684 175.899 293.724 176.405C294.554 176.167 294.977 176.319 294.993 176.859C295.033 177.153 295.096 177.442 295.182 177.727C296.884 178.5 297.874 176.841 299.35 175.25C301.171 173.286 302.535 171.074 303.871 168.766C306.858 163.606 310.302 158.754 313.067 153.448C315.885 148.04 318.173 142.25 320.562 136.639C322.754 131.491 324.158 125.924 326.579 120.898C327.66 118.655 329.03 116.8 330.63 114.905C331.95 113.341 333.981 109.967 335.952 109.249C336.473 109.059 337.838 109.378 338.43 109.336C339.61 109.252 340.662 108.819 341.87 108.913C344.484 109.118 347.335 110.77 349.425 112.223C348.074 113.425 344.696 114.887 347.123 117.054C349.477 119.157 350.778 115.384 351.676 113.731C355.907 117.203 355.296 121.99 355.785 126.895C356.04 129.456 356.712 131.978 357.145 134.5C357.457 136.315 357.238 138.193 357.327 140.047C357.555 144.757 358.028 149.265 358.006 153.909C357.981 158.873 357.642 163.666 357.245 168.594C356.576 176.891 355.043 185.19 353.728 193.421C352.988 198.047 351.976 202.542 350.993 207.094C349.878 212.26 347.815 217.153 346.658 222.305C345.479 220.808 344.592 220.8 342.685 220.999C341.218 221.152 340.233 220.803 340.319 222.837C340.375 224.156 341.539 225.164 342.828 225.394C344.509 225.694 345.08 224.856 345.946 223.585C346.148 225.993 344.527 228.512 343.886 230.864C343.28 233.093 342.878 235.278 341.858 237.412C340.863 239.493 340.011 241.546 339.004 243.608C338.541 244.556 338.107 245.52 337.638 246.466C337.401 246.945 337.122 247.605 336.768 248.009C335.938 248.955 336.07 248.497 335.099 249.035C332.982 250.21 333.777 249.917 333.728 252.343C333.679 254.736 332.451 256.494 330.482 257.839C326.304 260.693 322.183 261.486 317.434 262.928C313.008 264.272 308.347 265.425 303.66 265.399C297.921 265.367 292.258 264.615 286.518 264.539C280.186 264.455 273.793 264.489 267.474 264.708C264.871 264.798 262.454 264.913 259.941 265.578C257.022 266.349 254.199 266.043 251.191 265.926C244.774 265.677 238.136 265.181 231.803 265.136C227.242 265.104 222.431 264.786 217.854 265.06ZM51.4535 267.546C50.3126 268.148 47.7554 267.901 46.6085 267.734C44.5882 267.44 44.3717 266.639 43.0899 264.839C40.8835 261.74 39.0922 258.771 37.7942 255.18C35.3098 248.308 34.2954 241.277 33.2048 234.088C31.9927 226.1 34.2063 217.82 34.9982 209.886C35.1801 208.066 35.429 206.262 35.7167 204.456C35.889 203.376 35.9339 199.702 36.6452 198.767C38.0118 196.971 44.3665 198.419 46.865 198.582C53.8389 199.037 60.8587 199.144 67.8294 199.223C71.5461 199.265 75.2836 199.42 78.9634 199.449C80.6534 199.463 82.3057 199.379 84.0018 199.214C84.5692 199.16 85.1232 199.029 85.6946 198.998C87.6513 198.89 87.5042 198.606 88.0099 200.337C88.8959 203.37 88.2142 207.229 88.4468 210.377C88.7581 214.584 88.9263 218.85 88.8493 223.065C88.778 226.961 88.9109 230.848 88.7654 234.752C88.7046 236.369 88.5279 237.687 88.1011 239.231C87.6185 240.977 87.0876 245.055 85.8855 246.263C85.7489 246.401 84.7273 246.08 84.4561 246.423C84.0383 246.95 84.1149 248.067 83.8279 248.408C82.8994 249.512 80.9805 249.599 79.5884 250.095C75.7687 251.456 72.2647 252.934 68.6646 254.769C65.448 256.409 60.2617 257.804 58.3277 261.039C57.441 262.522 57.3214 264.477 56.506 266.007C55.5775 267.75 57.4353 266.839 55.1605 267.546C54.136 267.864 52.5035 267.546 51.4535 267.546ZM390.568 247.834C390.857 251.859 393.127 255.692 393.916 259.65C394.286 261.503 394.913 263.324 395.347 265.166C395.764 266.933 397.269 269.026 397.117 270.775C391.561 268.797 385.934 268.3 380.128 267.766C374.625 267.261 368.811 267.059 363.354 267.057C357.793 267.054 351.847 266.511 346.122 266.427C340.134 266.339 334.056 266.184 328.154 265.564C331.24 263.28 335.101 261.136 337.38 257.958C339.857 254.505 341.143 250.177 343.323 246.533C347.696 239.219 350.477 230.144 352.769 221.927C357.398 205.34 362.571 189.058 363.817 171.853C366.19 173.067 368.073 177.777 369.261 180.122C370.777 183.117 371.571 186.363 372.557 189.546C374.586 196.102 375.991 202.899 378.476 209.392C383.226 221.805 386.279 235.179 390.568 247.834ZM88.9992 151.158C87.9719 158.577 85.8174 166.091 85.7347 173.599C85.7165 175.251 85.9966 177.086 85.6521 178.714C85.2841 180.453 84.0873 181.99 83.3963 183.643C82.2997 186.266 79.5223 191.643 82.2008 193.866C82.2551 191.756 84.187 189.078 85.1601 187.233C86.6268 184.454 88.5538 181.913 90.1437 179.203C93.4718 173.53 97.2011 167.978 101.49 162.977C105.668 158.106 110.482 153.784 114.912 149.146C116.243 147.752 126.921 134.337 127.345 134.525C124.033 147.286 118.403 158.39 110.698 169.075C106.921 174.313 102.387 177.76 97.7884 182.197C93.959 185.893 86.7415 189.844 88.0655 195.899C82.0792 195.324 76.1322 194.406 70.0916 194.406C71.0849 186.766 71.8456 179.248 73.6191 171.734C75.6325 163.202 76.9962 154.415 78.7 145.808C80.4387 137.02 83.3878 128.513 85.2225 119.742C86.9794 111.344 88.4886 102.96 89.7766 94.4681C90.8408 99.1736 90.4481 104.342 90.8258 109.143C91.2116 114.048 91.1743 118.863 91.0458 123.797C90.808 132.961 89.8304 142.015 88.9992 151.158ZM63.0593 107.465C63.0257 103.542 62.265 99.6725 62.0303 95.759C61.9582 94.5584 60.7614 86.3667 61.8775 85.9391C62.7955 87.9387 63.0095 90.4976 63.8431 92.5956C64.6759 94.6916 65.79 96.6884 66.5892 98.799C68.3206 103.371 68.9179 108.545 69.1044 113.406C69.5262 124.401 69.7443 135.371 69.0047 146.367C68.6877 151.079 68.4446 155.8 68.5313 160.522C68.6266 165.718 69.4229 170.228 68.4559 175.382C67.4987 180.485 66.8972 185.567 66.5783 190.744C66.3546 194.378 66.2646 194.121 62.7946 193.866C60.2896 193.681 57.7599 193.878 55.2513 193.764C56.4242 179.6 56.6158 165.408 58.4894 151.298C59.4455 144.101 59.471 136.798 60.6584 129.627C61.2485 126.065 62.2386 122.574 62.8076 119.008C63.4184 115.179 63.1176 111.324 63.0593 107.465ZM316.804 98.5516C310.124 99.1298 303.018 101.125 296.171 99.8077C297.3 99.3509 300.254 98.7208 298.924 96.918C297.573 95.0848 295.295 97.41 293.947 97.1699C293.116 97.0217 291.279 93.5501 290.767 92.8313C289.604 91.1977 289.464 90.913 287.373 90.4943C285.348 90.0894 284.889 90.5279 284.632 88.5157C284.337 86.2019 285.139 83.6005 285.059 81.2344C284.889 76.1405 283.244 71.6736 281.713 66.881C288.217 68.2947 294.576 69.9712 301.226 70.8823C304.068 71.2718 308.49 72.1704 311.073 70.2396C311.744 69.7375 311.637 69.0596 312.187 68.4777C313.108 67.5014 314.818 66.4914 316.125 66.2132C324.168 64.5023 324.953 75.9595 320.922 80.2467C319.912 81.321 318.508 81.8515 317.474 82.8359C316.094 84.1488 315.981 85.5317 315.779 87.5358C315.402 91.2937 315.915 95.0662 317.519 98.5038L316.804 98.5516ZM219.196 152.64C216.822 153.091 214.343 152.988 211.963 153.372C211.117 153.509 208.581 153.985 207.838 153.491C206.702 152.736 206.298 149.969 205.761 148.681C204.817 146.414 203.481 144.437 202.58 142.13C198.9 132.703 195.469 123.239 191.018 114.135C192.724 113.692 194.034 113.674 195.753 113.446C197.544 113.207 199.168 112.149 200.876 111.694C202.5 111.262 204.201 111.372 205.81 110.87C206.697 110.593 207.457 109.978 208.331 109.763C209.724 109.421 211.35 109.221 212.178 110.134C213.027 111.071 213.325 113.641 213.787 114.851C215.017 118.076 216.447 121.188 217.477 124.486C218.408 127.462 219.291 130.405 220.11 133.407C220.975 136.577 222.679 139.189 223.717 142.217C224.507 144.522 225.253 146.878 225.371 149.335C225.485 151.733 225.835 151.885 223.435 152.268C222.224 152.461 220.336 153.181 219.196 152.64ZM62.9673 264.858C62.3488 265.146 61.7657 265.108 61.2185 264.743C66.5803 262.48 71.7958 259.342 77.3894 257.789C82.6364 256.333 87.7364 254.594 92.7914 252.801C96.8988 251.344 100.592 250.209 104.305 247.645C106.559 246.089 108.562 244.339 110.111 242.064C111.835 239.531 112.219 235.927 114.086 233.647C116.607 236.413 119.569 238.508 122.551 240.706C123.583 241.466 126.058 243.124 126.411 244.301C126.856 245.786 125.663 247.206 125.073 248.709C123.562 252.558 122.823 256.404 122.003 260.406C121.675 262.009 120.965 264.42 119.647 265.092C118.446 265.703 114.97 265.258 113.476 265.145C105.683 264.555 98.0275 263.951 90.1871 264.488C81.3148 265.096 71.8165 265.516 62.9673 264.858ZM47.4012 193.542C45.9847 193.547 44.6011 193.37 43.19 193.37C44.0046 189.569 42.1002 184.652 41.425 180.858C40.6696 176.615 40.0945 172.227 39.5907 167.949C38.5289 158.939 38.0479 150.039 38.0341 140.963C38.0211 132.181 36.4211 124.156 34.1799 115.714C31.7734 106.647 27.8325 98.4933 24.5741 89.7492C28.1482 91.6371 30.1268 96.0547 32.0048 99.4319C34.3789 103.702 35.9603 108.43 36.9297 113.224C38.8 122.472 40.8515 131.748 43.0096 140.98C45.2569 150.593 46.578 160.294 49.1523 169.829C50.4079 174.479 52.1149 180.199 52.2097 184.994C52.249 186.977 52.8472 191.131 51.9475 192.854C51.1061 194.466 49.246 193.706 47.4012 193.542ZM261.204 181.614C261.278 182.602 261.349 183.541 261.524 184.516C259.562 184.497 257.077 182.463 255.395 181.55C253.345 180.438 251.293 179.211 249.288 178.093C245.417 175.933 241.023 174.511 236.891 172.737C232.143 170.7 227.78 168.237 223.24 165.784C221.654 164.927 210.257 159.991 210.448 158.643C212.951 158.559 215.453 158.476 217.955 158.393C220.1 158.322 223.423 158.806 225.477 158.144C226.602 157.78 227.865 156.444 228.29 155.397C228.71 154.361 227.766 149.597 228.315 149.293C231.115 152.15 232.876 155.947 235.38 159.029C238.147 162.436 241.722 164.425 245.663 166.235C250.014 168.234 254.518 169.782 258.965 171.496C260.84 172.218 260.803 172.632 260.966 174.686C261.149 176.983 261.129 179.312 261.204 181.614ZM35.0825 268.014C30.3655 268.52 25.5314 268.232 20.7775 268.626C19.0478 268.769 16.6498 268.983 18.39 271.303C19.4859 272.764 22.9964 272.295 24.5887 272.397C28.864 272.668 33.3904 272.522 37.6754 272.459C38.5775 272.446 39.5745 272.178 40.4864 272.238C41.5389 272.307 42.7993 273.064 43.7585 273.058C44.3499 273.055 44.5618 272.431 45.0716 272.374C46.1825 272.25 47.293 272.158 48.4131 272.159C65.3495 272.162 82.0533 271.822 98.9475 271.804C107.026 271.796 115.234 271.656 123.309 271.277C125.005 271.197 134.661 271.544 134.394 268.493C134.257 266.922 131.105 266.701 129.955 266.534C129.102 266.41 128.218 266.43 127.364 266.384C125.095 266.262 124.102 266.808 124.58 264.328C126.395 254.92 129.648 247.145 136.598 240.381C142.281 234.849 149.123 229.832 155.56 225.213C163.375 219.605 169.715 213.706 174.355 205.124C177.065 200.113 179.333 194.989 180.725 189.447C181.226 187.454 181.238 185.187 181.852 183.265C182.324 181.785 183.4 180.75 184.034 179.217C191.81 192.194 202.116 203.051 211.565 214.751C216.08 220.341 221.231 225.651 226.625 230.514C228.226 231.957 229.72 233.464 231.214 235.017C232.464 236.316 234.448 237.472 235.504 238.914C236.516 240.297 236.267 240.231 234.726 241.33C232.689 242.781 230.444 243.988 228.375 245.403C225.068 247.667 221.458 249.579 218.502 252.303C215.304 255.248 212.51 258.66 209.714 261.982C207.851 264.196 205.407 267.036 204.938 269.835C204.783 270.761 204.194 273.052 204.971 273.73C205.636 274.309 205.569 274.09 206.394 273.736C207.476 273.273 207.794 272.21 209.115 271.703C212.494 270.407 216.584 270.852 220.1 270.837C223.618 270.821 227.165 271.216 230.681 271.201C238.71 271.168 246.569 271.818 254.596 272.167C263.121 272.537 271.751 271.648 280.248 271.774C286.543 271.867 293.007 271.397 299.476 271.747C302.804 271.926 306.072 271.51 309.316 271.464C313.564 271.402 317.927 271.98 322.212 272.062C329.244 272.198 336.191 272.197 343.266 272.366C358.485 272.73 373.621 273.106 388.849 273.347C390.88 273.379 393.104 273.31 395.111 273.538C397.242 273.781 396.142 274.233 397.604 275C401.696 277.145 400.751 269.193 400.653 267.629C400.127 259.249 397.998 251.029 395.439 243.073C393.011 235.526 391.04 227.628 388.984 219.919C386.734 211.481 383.802 203.389 381.139 195.034C378.411 186.472 376.189 177.577 371.234 169.988C370.105 168.26 368.939 166.4 367.123 165.31C365.088 164.088 365.001 164.802 365.002 162.566C365.003 160.46 364.874 157.647 365.371 155.638C365.82 153.823 365.751 154.899 366.763 153.595C367.587 152.534 368.448 151.81 369.039 150.522C372.669 154.199 380.977 152.259 384.484 149.611C388.776 146.369 392.046 140.901 393.244 135.694C394.206 131.512 393.025 123.54 388.393 121.53C386.135 120.549 377.84 119.808 377.509 116.613C377.338 114.964 380.257 112.645 380.93 111.226C382.179 108.599 383.377 105.104 383.724 102.224C384.402 96.603 381.848 90.317 377.779 86.5198C370.316 79.5538 357.184 75.979 347.583 80.3986C349.612 72.6547 350.837 65.9743 349.815 57.9191C348.935 50.9795 344.837 47.0969 339.198 43.6402C329.576 37.7409 316.492 35.4125 305.49 37.1278C302.99 37.5178 300.59 38.354 298.276 39.0194C294.913 39.986 290.887 39.664 287.711 41.2344C285.409 42.3727 283.661 44.6404 281.639 46.1545C279.278 47.9221 277.316 50.5604 275.676 53.0002C272.169 58.2175 273.539 67.9007 276.475 73.1378C277.104 74.2612 277.882 75.2067 278.924 75.9733C280.008 76.771 281.661 77.0193 282.22 78.0539C283.652 80.7043 282.271 86.442 282.08 89.3066C281.858 92.6328 283.541 95.1314 287.315 95.3966C289.499 95.5505 289.569 94.2846 290.614 96.8893C291.292 98.5775 291.907 100.417 292.885 101.964C294.902 105.154 298.595 104.843 301.958 104.757C305.852 104.656 309.688 104.041 313.584 103.654C312.555 106.948 309.738 109.505 307.979 112.439C305.601 116.409 304.169 119.699 303.783 124.323C303.486 127.876 304.126 130.682 306.56 133.326C307.567 134.421 308.46 134.475 308.21 135.738C308.057 136.508 306.724 137.778 306.253 138.393C305.005 140.019 303.556 141.512 302.458 143.249C298.231 149.931 296.983 160.118 296.973 167.897C296.972 168.254 296.782 169.013 296.939 169.381C297.056 169.654 297.943 170.517 297.956 170.591C298.129 171.591 297.153 173.306 295.622 173.475C294.013 173.653 291.067 172.312 289.571 171.871C287.177 171.166 284.736 170.645 282.347 169.921C278.488 168.751 274.648 167.818 270.725 166.901C268.952 166.487 267.17 166.142 265.392 165.755C263.366 165.315 262.425 164.463 261.379 166.522C260.483 168.289 261.04 168.61 258.868 167.719C256.71 166.834 254.602 165.738 252.496 164.739C248.782 162.978 244.358 161.409 241.153 158.809C235.808 154.473 233.829 147.567 228.713 142.965C227.288 141.684 226.438 141.662 225.538 139.887C224.574 137.987 224.076 135.551 223.57 133.507C222.682 129.929 222.05 126.339 221.245 122.764C220.242 118.31 218.074 114.277 216.492 110.029C215.876 108.374 215.556 106.27 214.562 104.783C214.299 104.388 213.796 104.166 213.59 103.84C212.883 102.719 212.89 102.412 212.707 101.063C211.85 94.7645 208.087 98.0782 203.975 99.5226C202.242 100.131 194.016 104.078 197.157 106.703C193.412 107.789 187.415 107.199 187.465 112.561C187.491 115.309 189.135 118.248 190.018 120.82C190.802 123.103 191.56 125.396 192.357 127.675C194.101 132.67 196.218 137.514 197.921 142.524C198.697 144.807 199.337 147.144 200.417 149.298C201.37 151.199 203.677 153.294 204.058 155.373C194.079 151.119 184.847 144.969 173.677 145.361C168.786 145.532 164.348 147.586 161.647 151.883C158.26 157.269 156.032 163.299 152.722 168.735C140.681 188.508 126.32 206.471 113.101 225.426C112.086 226.883 110.78 228.26 110.428 230.06C110.198 231.234 110.644 232.409 110.368 233.537C109.797 235.882 106.907 238.809 104.948 240.157C101.193 242.739 95.0885 246.382 90.4023 246.06C93.3434 238.998 93.304 231.259 93.1675 223.726C93.0374 216.57 92.2633 209.472 91.3445 202.39C91.1366 200.788 90.9555 199.302 90.4947 197.749C89.9658 195.967 89.2396 196.136 90.8238 194.535C93.2619 192.069 96.162 190.039 98.62 187.543C103.936 182.143 109.384 177.911 113.569 171.463C117.548 165.33 121.745 159.02 124.691 152.304C127.723 145.39 128.935 138.006 130.44 130.685C131.051 127.713 133.279 124.397 132.831 121.294C132.265 117.373 130.446 120.228 129.705 122.338C127.444 128.78 122.151 134.545 117.767 139.725C113.03 145.322 107.237 150.004 102.292 155.438C96.9081 161.356 93.2202 168.157 88.4323 174.474C88.4323 166.634 91.1111 158.651 92.207 150.896C93.1711 144.069 93.4739 137.222 94.0834 130.366C95.4674 114.792 94.2714 98.7601 92.3289 83.298C91.4057 75.9547 91.9294 68.7842 91.9014 61.4158C91.8925 59.0708 92.8639 53.6659 91.6258 51.5849C89.2545 47.599 87.8714 56.3147 87.7514 57.6142C87.0345 65.3551 88.3204 73.0099 87.6635 80.7177C86.9769 88.7668 85.4871 96.59 84.2194 104.546C82.8459 113.16 80.6101 121.581 78.4694 130.03C76.2218 138.901 74.3316 147.957 71.8327 156.758C71.1587 153.991 72.1042 150.593 72.291 147.776C72.5577 143.744 73.0785 139.712 73.1235 135.669C73.1956 129.227 73.2458 122.665 72.8811 116.253C72.5216 109.933 72.6302 103.31 70.6902 97.2205C69.7694 94.3304 68.419 91.5107 67.0978 88.7883C65.4678 85.4313 64.8915 82.1763 63.989 78.6059C63.2157 75.5481 62.0842 72.5709 61.5691 69.452C61.2489 67.5123 60.3553 61.7863 58.1328 66.1246C56.8424 68.6425 57.4001 72.3753 57.364 75.0804C57.3178 78.5484 57.8491 81.9204 57.9305 85.3737C58.089 92.1493 58.2029 98.9168 58.7087 105.681C59.2392 112.778 58.776 119.138 57.4248 126.131C55.9459 133.785 55.5131 141.456 54.7467 149.204C54.3516 153.204 53.6853 157.182 53.3635 161.189C53.1933 163.31 54.0663 169.394 52.5449 170.904C52.3978 167.23 51.3441 163.552 50.5453 159.972C49.599 155.73 49.2168 151.271 48.5193 146.968C47.3898 139.997 45.1981 133.34 43.748 126.448C40.7591 112.239 38.2756 93.9781 25.7494 84.678C24.1105 83.4612 22.3094 82.563 20.5376 81.5616C19.5345 80.9946 18.0443 79.5279 16.8966 79.272C15.6439 78.9926 15.1215 79.2096 14.6137 80.6618C13.9057 82.6861 15.2006 83.6317 16.4095 85.102C20.5931 90.1898 22.3804 96.7119 24.9636 102.679C30.879 116.342 33.4962 130.753 33.5262 145.523C33.542 153.254 34.0758 160.711 34.9009 168.396C35.7888 176.666 36.9581 185.413 39.4728 193.369C36.9508 193.934 34.2144 193.092 33.5299 196.021C33.3617 196.741 33.6656 197.592 33.4796 198.528C33.2989 199.439 32.864 200.344 32.6067 201.239C32.0749 203.091 31.7936 204.918 31.5351 206.82C30.5353 214.169 28.8185 221.159 28.6358 228.61C28.4676 235.498 29.8171 242.477 31.0605 249.232C32.3132 256.036 35.906 261.836 38.7344 267.989C37.5169 267.989 36.2999 268.002 35.0825 268.014Z" fill="black"/>
<path fill-rule="evenodd" clip-rule="evenodd" d="M195.166 252.374C196.507 252.753 202.983 253.468 202.982 255.498C202.981 256.716 196.514 256.692 195.369 256.825C195.301 255.341 195.233 253.858 195.166 252.374ZM180.871 266.385C177.14 267.094 172.074 266.097 169.688 262.809C168.573 261.273 168.045 258.937 167.682 257.104C167.335 255.357 166.265 250.998 166.993 249.36C167.887 247.349 176.461 249.451 178.958 249.682C183.314 250.083 187.819 250.131 192.178 249.847C192.178 254.344 192.408 258.727 189.761 262.598C187.851 265.391 184.264 266.051 180.871 266.385ZM181.622 271.94C185.676 270.457 189.933 271.421 192.574 267.071C193.244 265.968 193.808 264.781 194.213 263.555C194.411 263.018 194.565 262.468 194.675 261.905C194.468 260.693 194.913 260.351 196.008 260.879C198.157 260.462 200.514 261.936 202.778 261.501C208.268 260.448 207.271 252.589 203.586 249.868C202.858 249.331 202.131 249.181 201.298 248.916C199.461 248.331 198.467 248.984 196.787 248.818C195.43 248.684 195.056 247.261 193.597 246.635C192.642 246.225 191.316 246.257 190.312 246.215C185.056 246 179.784 246.002 174.495 245.659C172.028 245.5 169.364 245.89 166.948 245.469C165.816 245.271 165.979 244.519 164.907 245.179C163.798 245.863 164.277 248.39 164.333 249.398C164.657 255.227 165.004 261.477 168.129 266.573C170.988 271.235 176.613 271.712 181.622 271.94Z" fill="black"/>
<path fill-rule="evenodd" clip-rule="evenodd" d="M395.763 273.545C394.459 273.531 393.154 273.517 391.854 273.504C393.161 273.518 394.462 273.532 395.763 273.545Z" fill="black"/>
<path fill-rule="evenodd" clip-rule="evenodd" d="M33.5198 149.276C33.5218 148.024 33.5241 146.772 33.5264 145.522C33.5244 146.775 33.5221 148.026 33.5198 149.276Z" fill="black"/>
<path fill-rule="evenodd" clip-rule="evenodd" d="M365.367 154.418C365.371 155.638 365.375 156.858 365.379 158.075C365.376 156.854 365.372 155.636 365.367 154.418Z" fill="black"/>
<path fill-rule="evenodd" clip-rule="evenodd" d="M256.928 272.163C255.891 272.164 254.853 272.165 253.82 272.168C254.859 272.167 255.893 272.165 256.928 272.163Z" fill="black"/>
<path fill-rule="evenodd" clip-rule="evenodd" d="M319.947 271.914C318.909 271.917 317.872 271.92 316.839 271.924C317.878 271.922 318.913 271.918 319.947 271.914Z" fill="black"/>
<path fill-rule="evenodd" clip-rule="evenodd" d="M93.0305 221.258C93.0759 222.082 93.1221 222.905 93.1675 223.726C93.1217 222.902 93.0759 222.08 93.0305 221.258Z" fill="black"/>
<path fill-rule="evenodd" clip-rule="evenodd" d="M35.0824 268.014C35.8844 268.006 36.6865 267.997 37.4885 267.989C36.6828 267.653 35.8808 267.668 35.0824 268.014Z" fill="black"/>
<path fill-rule="evenodd" clip-rule="evenodd" d="M106.291 271.659C105.715 271.651 105.14 271.642 104.57 271.632C105.147 271.64 105.719 271.65 106.291 271.659Z" fill="black"/>
<path fill-rule="evenodd" clip-rule="evenodd" d="M33.8306 159.435C33.8169 158.813 33.8032 158.191 33.7895 157.571C33.8032 158.194 33.8169 158.815 33.8306 159.435Z" fill="black"/>
<path fill-rule="evenodd" clip-rule="evenodd" d="M87.6635 80.7178C87.7109 80.076 87.7583 79.4345 87.8062 78.7943C87.7583 79.4366 87.7109 80.0772 87.6635 80.7178Z" fill="black"/>
<path fill-rule="evenodd" clip-rule="evenodd" d="M33.5464 151.727C33.539 151.084 33.5315 150.441 33.5241 149.8C33.5315 150.444 33.539 151.086 33.5464 151.727Z" fill="black"/>
<path fill-rule="evenodd" clip-rule="evenodd" d="M214.576 270.861C214.064 270.869 213.552 270.876 213.045 270.883C213.557 270.875 214.067 270.868 214.576 270.861Z" fill="black"/>
<path fill-rule="evenodd" clip-rule="evenodd" d="M82.738 271.911C82.2379 271.92 81.7374 271.93 81.2418 271.941C81.7439 271.931 82.2408 271.921 82.738 271.911Z" fill="black"/>
<path fill-rule="evenodd" clip-rule="evenodd" d="M28.6934 226.674C28.7294 226.109 28.7655 225.545 28.8008 224.982C28.7647 225.546 28.729 226.11 28.6934 226.674Z" fill="black"/>
<path fill-rule="evenodd" clip-rule="evenodd" d="M37.6753 272.459C37.268 272.457 36.8607 272.454 36.4583 272.453C36.8668 272.456 37.2712 272.458 37.6753 272.459Z" fill="black"/>
<path fill-rule="evenodd" clip-rule="evenodd" d="M93.1646 271.936C92.7613 271.927 92.3581 271.916 91.9589 271.907C92.3637 271.917 92.7645 271.927 93.1646 271.936Z" fill="black"/>
<path fill-rule="evenodd" clip-rule="evenodd" d="M183.82 271.629C183.375 271.626 182.932 271.624 182.492 271.62C182.937 271.623 183.378 271.626 183.82 271.629Z" fill="black"/>
<path fill-rule="evenodd" clip-rule="evenodd" d="M286.195 271.627C285.773 271.63 285.351 271.633 284.933 271.637C285.357 271.634 285.776 271.63 286.195 271.627Z" fill="black"/>
<path fill-rule="evenodd" clip-rule="evenodd" d="M311.1 271.695C310.669 271.671 310.24 271.647 309.813 271.623C310.245 271.648 310.672 271.671 311.1 271.695Z" fill="black"/>
<path fill-rule="evenodd" clip-rule="evenodd" d="M191.866 107.846C192.506 107.791 193.147 107.736 193.787 107.68C193.146 107.725 192.468 107.346 191.866 107.846Z" fill="black"/>
<path fill-rule="evenodd" clip-rule="evenodd" d="M28.6326 268.257C29.264 268.194 29.8954 268.13 30.5269 268.066C29.895 268.13 29.264 268.194 28.6326 268.257Z" fill="black"/>
<path fill-rule="evenodd" clip-rule="evenodd" d="M72.6745 111.73C72.7167 112.283 72.7596 112.836 72.8018 113.387C72.7592 112.834 72.7167 112.282 72.6745 111.73Z" fill="black"/>
<path fill-rule="evenodd" clip-rule="evenodd" d="M33.3877 134.777C33.3447 134.253 33.3018 133.729 33.2588 133.207C33.3018 133.732 33.3451 134.254 33.3877 134.777Z" fill="black"/>
<path fill-rule="evenodd" clip-rule="evenodd" d="M72.9258 120.305C72.9712 120.857 73.017 121.408 73.062 121.958C73.0166 121.406 72.9712 120.855 72.9258 120.305Z" fill="black"/>
<path fill-rule="evenodd" clip-rule="evenodd" d="M33.6552 155.93C33.6593 155.397 33.6633 154.864 33.667 154.332C33.3225 154.864 33.3363 155.396 33.6552 155.93Z" fill="black"/>
<path fill-rule="evenodd" clip-rule="evenodd" d="M93.0214 232.519C93.0263 233.053 93.0307 233.588 93.0364 234.12C93.3898 233.581 93.3193 233.049 93.0214 232.519Z" fill="black"/>
<path fill-rule="evenodd" clip-rule="evenodd" d="M52.7767 170.674C52.8383 170.133 52.9003 169.592 52.9619 169.052C52.8999 169.594 52.8383 170.135 52.7767 170.674Z" fill="black"/>
<path fill-rule="evenodd" clip-rule="evenodd" d="M386.019 121.016C386.437 121.568 387.008 121.19 387.505 121.257C387.009 121.176 386.514 121.096 386.019 121.016Z" fill="black"/>
<path fill-rule="evenodd" clip-rule="evenodd" d="M179.009 246.042C179.537 246.043 180.066 246.044 180.595 246.045C180.066 246.044 179.537 246.043 179.009 246.042Z" fill="black"/>
<path fill-rule="evenodd" clip-rule="evenodd" d="M94.5103 123.287C94.4608 123.736 94.4118 124.186 94.3623 124.634C94.4118 124.184 94.4608 123.735 94.5103 123.287Z" fill="black"/>
<path fill-rule="evenodd" clip-rule="evenodd" d="M355.89 78.6448C356.422 78.6553 356.954 78.6658 357.485 78.6763C356.959 78.367 356.429 78.2775 355.89 78.6448Z" fill="black"/>
<path fill-rule="evenodd" clip-rule="evenodd" d="M72.939 128.08C72.9735 128.551 73.0079 129.022 73.042 129.492C73.0075 129.02 72.9735 128.55 72.939 128.08Z" fill="black"/>
<path fill-rule="evenodd" clip-rule="evenodd" d="M87.5205 70.2201C87.4792 69.7905 87.4383 69.3608 87.3973 68.9336C87.4387 69.3641 87.4792 69.7921 87.5205 70.2201Z" fill="black"/>
<path fill-rule="evenodd" clip-rule="evenodd" d="M91.6987 68.8743C91.7404 69.3404 91.7821 69.8069 91.8235 70.2713C91.7817 69.8044 91.7404 69.3391 91.6987 68.8743Z" fill="black"/>
<path fill-rule="evenodd" clip-rule="evenodd" d="M322.661 37.7372C323.203 37.8028 323.744 37.8684 324.284 37.9336C323.743 37.868 323.203 37.8028 322.661 37.7372Z" fill="black"/>
<path fill-rule="evenodd" clip-rule="evenodd" d="M361.74 79.016C362.295 79.0727 362.85 79.1294 363.405 79.1861C362.85 79.1294 362.294 79.0727 361.74 79.016Z" fill="black"/>
<path fill-rule="evenodd" clip-rule="evenodd" d="M57.4871 80.3823C57.453 79.9486 57.4194 79.5145 57.3857 79.0833C57.4194 79.5174 57.4534 79.9498 57.4871 80.3823Z" fill="black"/>
<path fill-rule="evenodd" clip-rule="evenodd" d="M379.963 151.959C379.643 151.964 379.324 151.968 379.009 151.973C379.33 151.968 379.646 151.964 379.963 151.959Z" fill="black"/>
<path fill-rule="evenodd" clip-rule="evenodd" d="M91.6825 205.487C91.7145 205.968 91.7465 206.448 91.7786 206.927C91.7461 206.446 91.7141 205.967 91.6825 205.487Z" fill="black"/>
<path fill-rule="evenodd" clip-rule="evenodd" d="M59.0653 112.025C59.0778 111.562 59.0899 111.1 59.1028 110.638C59.0895 111.101 59.0774 111.563 59.0653 112.025Z" fill="black"/>
<path fill-rule="evenodd" clip-rule="evenodd" d="M309.042 36.642C309.535 36.642 310.028 36.6424 310.521 36.6424C310.027 36.3038 309.534 36.3123 309.042 36.642Z" fill="black"/>
<path fill-rule="evenodd" clip-rule="evenodd" d="M177.364 145.582C177.904 145.596 178.444 145.61 178.984 145.624C178.453 145.249 177.913 145.239 177.364 145.582Z" fill="black"/>
<path fill-rule="evenodd" clip-rule="evenodd" d="M130.154 270.843C129.834 270.849 129.513 270.856 129.197 270.864C129.519 270.858 129.836 270.85 130.154 270.843Z" fill="black"/>
<path fill-rule="evenodd" clip-rule="evenodd" d="M118.094 271.405C117.774 271.394 117.455 271.382 117.139 271.371C117.46 271.383 117.777 271.394 118.094 271.405Z" fill="black"/>
<path fill-rule="evenodd" clip-rule="evenodd" d="M306.828 271.627C306.495 271.636 306.161 271.644 305.832 271.652C306.167 271.644 306.497 271.636 306.828 271.627Z" fill="black"/>
<path fill-rule="evenodd" clip-rule="evenodd" d="M28.9704 221.319C29.0178 220.861 29.0652 220.403 29.113 219.947C29.0652 220.406 29.0178 220.862 28.9704 221.319Z" fill="black"/>
<path fill-rule="evenodd" clip-rule="evenodd" d="M72.5305 144.177C72.4924 144.613 72.4547 145.049 72.4174 145.482C72.4551 145.046 72.4928 144.611 72.5305 144.177Z" fill="black"/>
<path fill-rule="evenodd" clip-rule="evenodd" d="M55.7671 136.689C55.819 136.227 55.8709 135.764 55.9224 135.303C55.8705 135.766 55.819 136.228 55.7671 136.689Z" fill="black"/>
<path fill-rule="evenodd" clip-rule="evenodd" d="M304.122 271.903C303.786 271.898 303.449 271.893 303.116 271.888C303.454 271.894 303.788 271.898 304.122 271.903Z" fill="black"/>
<path fill-rule="evenodd" clip-rule="evenodd" d="M181.622 271.94C181.294 271.925 180.967 271.91 180.644 271.896C180.972 271.91 181.297 271.925 181.622 271.94Z" fill="black"/>
<path fill-rule="evenodd" clip-rule="evenodd" d="M58.5045 102.921C58.519 102.452 58.533 101.984 58.5471 101.516C58.5327 101.985 58.5186 102.453 58.5045 102.921Z" fill="black"/>
<path fill-rule="evenodd" clip-rule="evenodd" d="M336.019 272.209C335.69 272.207 335.362 272.204 335.039 272.202C335.368 272.205 335.693 272.207 336.019 272.209Z" fill="black"/>
<path fill-rule="evenodd" clip-rule="evenodd" d="M58.6404 272.205C58.3032 272.208 57.9656 272.211 57.6325 272.215C57.9717 272.212 58.306 272.208 58.6404 272.205Z" fill="black"/>
<path fill-rule="evenodd" clip-rule="evenodd" d="M51.3555 272.164C51.0296 272.188 50.7042 272.211 50.3824 272.233C50.7095 272.21 51.0325 272.188 51.3555 272.164Z" fill="black"/>
<path fill-rule="evenodd" clip-rule="evenodd" d="M48.4131 272.159C48.0816 272.168 47.7497 272.179 47.4222 272.186C47.7549 272.176 48.084 272.167 48.4131 272.159Z" fill="black"/>
<path fill-rule="evenodd" clip-rule="evenodd" d="M33.3065 138.546C33.3284 138.085 33.3499 137.624 33.3713 137.165C33.3495 137.626 33.3284 138.086 33.3065 138.546Z" fill="black"/>
<path fill-rule="evenodd" clip-rule="evenodd" d="M255.937 266.118C254.928 266.066 253.919 266.013 252.91 265.961C253.919 266.013 254.928 266.065 255.937 266.118Z" fill="black"/>
<path fill-rule="evenodd" clip-rule="evenodd" d="M316.804 98.5518C315.929 98.6279 315.053 98.704 314.178 98.7793C315.054 98.7036 315.929 98.6275 316.804 98.5518Z" fill="black"/>
<path fill-rule="evenodd" clip-rule="evenodd" d="M69.5278 136.597C69.5007 137.432 69.4727 138.267 69.4456 139.1C69.4731 138.264 69.5007 137.431 69.5278 136.597Z" fill="black"/>
<path fill-rule="evenodd" clip-rule="evenodd" d="M51.4536 267.546C50.5393 267.601 49.6254 267.656 48.7111 267.712C49.6311 267.754 50.5648 268.016 51.4536 267.546Z" fill="black"/>
<path fill-rule="evenodd" clip-rule="evenodd" d="M56.8638 168.776C56.8571 167.98 56.8505 167.183 56.8442 166.389C56.8509 167.186 56.8571 167.981 56.8638 168.776Z" fill="black"/>
<path fill-rule="evenodd" clip-rule="evenodd" d="M59.2041 193.803C58.4021 193.813 57.5992 193.824 56.7976 193.835C57.6 193.824 58.4021 193.813 59.2041 193.803Z" fill="black"/>
<path fill-rule="evenodd" clip-rule="evenodd" d="M261.148 179.799C261.167 180.406 261.186 181.013 261.205 181.617C261.185 181.009 261.166 180.404 261.148 179.799Z" fill="black"/>
<path fill-rule="evenodd" clip-rule="evenodd" d="M45.853 154.095C45.8859 154.7 45.9187 155.303 45.9507 155.904C45.9175 155.3 45.885 154.698 45.853 154.095Z" fill="black"/>
<path fill-rule="evenodd" clip-rule="evenodd" d="M62.9673 264.858C62.3837 264.818 61.8001 264.779 61.2177 264.741C61.6566 265.092 62.098 265.122 62.9673 264.858Z" fill="black"/>
<path fill-rule="evenodd" clip-rule="evenodd" d="M66.873 185.894C66.8329 186.545 66.7928 187.196 66.7531 187.845C66.7932 187.194 66.8329 186.544 66.873 185.894Z" fill="black"/>
<path fill-rule="evenodd" clip-rule="evenodd" d="M285.078 83.1163C285.072 82.4874 285.066 81.8585 285.06 81.2321C285.066 81.8617 285.072 82.489 285.078 83.1163Z" fill="black"/>
<path fill-rule="evenodd" clip-rule="evenodd" d="M66.1665 193.934L63.9914 193.887C64.7091 194.233 65.4342 194.246 66.1665 193.934Z" fill="black"/>
<path fill-rule="evenodd" clip-rule="evenodd" d="M46.0996 198.575C46.6127 198.58 47.1253 198.584 47.6348 198.589C47.1205 198.585 46.6098 198.58 46.0996 198.575Z" fill="black"/>
<path fill-rule="evenodd" clip-rule="evenodd" d="M233.932 265.108C233.222 265.118 232.512 265.127 231.802 265.136C232.517 265.494 233.228 265.545 233.932 265.108Z" fill="black"/>
<path fill-rule="evenodd" clip-rule="evenodd" d="M69.2776 141.96C69.2423 142.614 69.2071 143.267 69.1718 143.919C69.2071 143.265 69.2423 142.613 69.2776 141.96Z" fill="black"/>
<path fill-rule="evenodd" clip-rule="evenodd" d="M299.287 100.086C298.68 99.7869 298.067 99.7367 297.449 100.054C298.062 100.065 298.675 100.076 299.287 100.086Z" fill="black"/>
<path fill-rule="evenodd" clip-rule="evenodd" d="M89.1494 149.507C89.0992 150.058 89.0489 150.61 88.9987 151.16C89.0493 150.608 89.0992 150.057 89.1494 149.507Z" fill="black"/>
<path fill-rule="evenodd" clip-rule="evenodd" d="M37.831 136.643C38.143 136.104 38.1321 135.567 37.8156 135.036C37.8208 135.572 37.8257 136.108 37.831 136.643Z" fill="black"/>
<path fill-rule="evenodd" clip-rule="evenodd" d="M69.1782 117.918C69.1782 118.464 69.1778 119.01 69.1778 119.553C69.1782 119.007 69.1782 118.462 69.1782 117.918Z" fill="black"/>
<path fill-rule="evenodd" clip-rule="evenodd" d="M47.4011 193.542C46.7758 193.35 46.1504 193.079 45.5279 193.548C46.1525 193.546 46.7766 193.544 47.4011 193.542Z" fill="black"/>
<path fill-rule="evenodd" clip-rule="evenodd" d="M335.733 265.872C335.157 265.619 334.582 265.486 334.014 265.892C334.587 265.885 335.16 265.879 335.733 265.872Z" fill="black"/>
<path fill-rule="evenodd" clip-rule="evenodd" d="M217.854 265.06C217.238 264.792 216.623 264.644 216.014 265.079C216.628 265.073 217.241 265.067 217.854 265.06Z" fill="black"/>
<path fill-rule="evenodd" clip-rule="evenodd" d="M355.034 185.397C354.988 185.953 354.941 186.509 354.896 187.063C354.942 186.507 354.988 185.952 355.034 185.397Z" fill="black"/>
<path fill-rule="evenodd" clip-rule="evenodd" d="M211.963 153.372C211.357 153.152 210.752 153.037 210.157 153.405C210.759 153.394 211.361 153.383 211.963 153.372Z" fill="black"/>
<path fill-rule="evenodd" clip-rule="evenodd" d="M69.2871 169.922C69.2535 170.466 69.2198 171.009 69.1866 171.551C69.2202 171.008 69.2539 170.465 69.2871 169.922Z" fill="black"/>
<path fill-rule="evenodd" clip-rule="evenodd" d="M355.426 120.886C355.476 121.324 355.526 121.762 355.576 122.198C355.526 121.759 355.476 121.323 355.426 120.886Z" fill="black"/>
<path fill-rule="evenodd" clip-rule="evenodd" d="M390.568 247.834C390.6 248.26 390.63 248.686 390.661 249.11C390.629 248.683 390.599 248.258 390.568 247.834Z" fill="black"/>
<path fill-rule="evenodd" clip-rule="evenodd" d="M56.5952 172.798C56.6292 172.358 56.6632 171.917 56.6973 171.479C56.6632 171.92 56.6292 172.359 56.5952 172.798Z" fill="black"/>
<path fill-rule="evenodd" clip-rule="evenodd" d="M261.35 183.548C261.249 183.869 261.148 184.19 261.047 184.511C261.721 184.674 261.822 184.353 261.35 183.548Z" fill="black"/>
<path fill-rule="evenodd" clip-rule="evenodd" d="M220.842 152.647C220.293 152.645 219.745 152.643 219.196 152.64C219.744 152.9 220.292 153.079 220.842 152.647Z" fill="black"/>
<path fill-rule="evenodd" clip-rule="evenodd" d="M354.727 188.029C354.709 188.515 354.691 189.001 354.673 189.486C354.692 188.999 354.709 188.514 354.727 188.029Z" fill="black"/>
<path fill-rule="evenodd" clip-rule="evenodd" d="M87.8174 193.153C87.7986 193.6 87.7795 194.048 87.7603 194.493C87.7787 194.044 87.7982 193.599 87.8174 193.153Z" fill="black"/>
<path fill-rule="evenodd" clip-rule="evenodd" d="M360.166 266.95C359.645 266.604 359.123 266.634 358.6 266.944C359.122 266.946 359.644 266.948 360.166 266.95Z" fill="black"/>
<path fill-rule="evenodd" clip-rule="evenodd" d="M346.453 114.635C346.425 115.092 346.396 115.549 346.367 116.003C346.395 115.545 346.424 115.09 346.453 114.635Z" fill="black"/>
<path fill-rule="evenodd" clip-rule="evenodd" d="M362.875 266.997C362.334 266.999 361.793 267.001 361.252 267.004C361.795 267.373 362.336 267.39 362.875 266.997Z" fill="black"/>
<path fill-rule="evenodd" clip-rule="evenodd" d="M63.0593 107.465C63.0549 107.001 63.0508 106.537 63.0468 106.074C63.0512 106.539 63.0553 107.001 63.0593 107.465Z" fill="black"/>
<path fill-rule="evenodd" clip-rule="evenodd" d="M311.634 99.3494C311.116 99.417 310.598 99.4846 310.08 99.5518C310.598 99.4842 311.116 99.417 311.634 99.3494Z" fill="black"/>
<path fill-rule="evenodd" clip-rule="evenodd" d="M357.338 139.398C357.332 139.832 357.325 140.265 357.317 140.697C357.324 140.262 357.331 139.83 357.338 139.398Z" fill="black"/>
<path fill-rule="evenodd" clip-rule="evenodd" d="M59.5726 139.336C59.601 138.895 59.6293 138.453 59.6577 138.014C59.6293 138.456 59.6006 138.896 59.5726 139.336Z" fill="black"/>
<path fill-rule="evenodd" clip-rule="evenodd" d="M180.373 266.479C179.734 266.537 179.095 266.595 178.456 266.653C179.095 266.595 179.734 266.537 180.373 266.479Z" fill="black"/>
<path fill-rule="evenodd" clip-rule="evenodd" d="M182.508 249.948C182.854 249.954 183.199 249.959 183.542 249.966C183.195 249.962 182.852 249.955 182.508 249.948Z" fill="black"/>
<path fill-rule="evenodd" clip-rule="evenodd" d="M182.479 266.226C181.943 266.279 181.407 266.332 180.871 266.385C181.407 266.332 181.943 266.279 182.479 266.226Z" fill="black"/>
<path fill-rule="evenodd" clip-rule="evenodd" d="M278.943 230.158C278.246 234.096 284.37 237.947 284.856 232.35C285.033 230.303 283.663 228.863 282.129 227.612C279.952 225.836 278.736 227.537 278.943 230.158Z" fill="black"/>
<path fill-rule="evenodd" clip-rule="evenodd" d="M346.45 182.116C345.007 182.706 333.984 186.295 339.71 188.101C341.226 188.578 343.517 188.65 344.831 187.808C346.411 186.795 348.006 183.805 346.45 182.116Z" fill="black"/>
<path fill-rule="evenodd" clip-rule="evenodd" d="M343.738 128.791C339.996 128.357 336.549 134.497 341.162 134.298C344.519 134.153 349.035 128.791 343.738 128.791Z" fill="black"/>
<path fill-rule="evenodd" clip-rule="evenodd" d="M330.353 143.847C327.229 146.57 333.02 152.666 335.319 150.307C336.493 149.102 335.41 146.505 334.441 145.497C333.447 144.462 331.677 144.268 330.353 143.847Z" fill="black"/>
<path fill-rule="evenodd" clip-rule="evenodd" d="M321.052 214.457C322.897 214.75 331.008 217.398 329.316 212.588C328.671 210.753 326.871 211.297 325.226 211.382C322.575 211.517 321.052 211.39 321.052 214.457Z" fill="black"/>
<path fill-rule="evenodd" clip-rule="evenodd" d="M326.395 226.847C323.634 228.323 327.67 236.583 329.959 234.826C333.134 232.387 328.791 227.589 326.395 226.847Z" fill="black"/>
<path fill-rule="evenodd" clip-rule="evenodd" d="M314.353 220.207C313.01 219.659 306.681 225.742 309.09 227.434C310.325 228.302 312.665 226.815 313.409 225.918C314.805 224.237 314.932 222.163 314.353 220.207Z" fill="black"/>
<path fill-rule="evenodd" clip-rule="evenodd" d="M350.869 170.485C349.497 170.711 347.127 170.782 347.039 172.709C346.961 174.402 349.086 174.951 350.582 175.084C352.134 175.221 354.188 174.783 354.218 172.834C354.249 170.73 350.917 170.857 350.869 170.485Z" fill="black"/>
<path fill-rule="evenodd" clip-rule="evenodd" d="M317.029 254.331C315.568 255.217 308.751 258.409 311.673 260.715C312.767 261.578 316.082 259.795 316.828 258.89C317.718 257.808 318.588 255.275 317.029 254.331Z" fill="black"/>
<path fill-rule="evenodd" clip-rule="evenodd" d="M298.08 231.17C298.291 227.647 292.342 226.245 293.576 231.245C293.923 232.656 294.26 234.796 296.004 234.877C298.066 234.974 298.141 232.536 298.08 231.17Z" fill="black"/>
<path fill-rule="evenodd" clip-rule="evenodd" d="M316.456 169.905C316.414 172.578 321.539 174.935 321.579 170.699C321.614 166.913 316.264 165.805 316.456 169.905Z" fill="black"/>
<path fill-rule="evenodd" clip-rule="evenodd" d="M319.84 155.986C318.577 156.393 316.899 156.602 316.788 158.205C316.67 159.902 318.247 160.657 319.667 160.562C320.831 160.484 322.553 159.623 322.764 158.361C323.075 156.509 321.265 156.388 319.84 155.986Z" fill="black"/>
<path fill-rule="evenodd" clip-rule="evenodd" d="M343.323 204.917C343.344 202.712 338.921 200.061 338.106 202.62C337.846 203.439 339.931 207.111 340.624 207.386C342.459 208.113 342.715 206.417 343.323 204.917Z" fill="black"/>
<path fill-rule="evenodd" clip-rule="evenodd" d="M307.077 241.623C308.572 242.959 313.055 246.714 312.72 241.674C312.506 238.453 306.683 238.622 307.077 241.623Z" fill="black"/>
<path fill-rule="evenodd" clip-rule="evenodd" d="M234.029 256.03C233.539 253.91 226.525 257.587 228.866 260.264C229.651 261.163 231.705 260.35 232.495 259.817C234.059 258.763 234.093 257.79 234.029 256.03Z" fill="black"/>
<path fill-rule="evenodd" clip-rule="evenodd" d="M273.112 210.66C272.838 209.715 272.534 208.045 271.632 207.442C269.999 206.351 268.578 207.996 268.578 209.731C268.577 212.966 272.263 213.987 273.112 210.66Z" fill="black"/>
<path fill-rule="evenodd" clip-rule="evenodd" d="M290.497 248.49C288.675 248.907 284.62 253.33 286.972 255.135C289.236 256.872 292.246 249.811 290.497 248.49Z" fill="black"/>
<path fill-rule="evenodd" clip-rule="evenodd" d="M288.763 215.005C286.421 215.192 283.203 218.981 286.842 219.583C289.689 220.055 293.001 215.933 288.763 215.005Z" fill="black"/>
<path fill-rule="evenodd" clip-rule="evenodd" d="M267.563 232.441C266.976 230.465 261.168 232.583 261.495 234.759C261.668 235.916 264.043 236.188 265.291 235.882C267.128 235.431 267.605 234.227 267.563 232.441Z" fill="black"/>
<path fill-rule="evenodd" clip-rule="evenodd" d="M336.021 122.05C335.979 119.495 331.065 118.453 330.705 121.028C330.38 123.355 336.083 125.83 336.021 122.05Z" fill="black"/>
<path fill-rule="evenodd" clip-rule="evenodd" d="M269.187 258.771C268.833 257.486 268.68 255.939 267.074 255.77C265.235 255.576 265.289 256.985 265.505 258.445C266.093 262.418 268.34 262.617 269.187 258.771Z" fill="black"/>
<path fill-rule="evenodd" clip-rule="evenodd" d="M346.787 152.451C349.348 153.029 354.04 148.099 351.173 147.041C349.152 146.295 346.787 150.964 346.787 152.451Z" fill="black"/>
<path fill-rule="evenodd" clip-rule="evenodd" d="M314.113 190.745C315.416 191.358 315.717 191.731 316.718 190.724C317.59 189.847 317.552 187.405 316.803 186.493C313.936 183 314.004 189.332 314.113 190.745Z" fill="black"/>
<path fill-rule="evenodd" clip-rule="evenodd" d="M303.476 183.662C302.116 183.835 298.076 187.664 300.18 189.186C302.758 191.05 304.216 185.21 303.476 183.662Z" fill="black"/>
<path fill-rule="evenodd" clip-rule="evenodd" d="M274.058 184.67C275.046 188.473 277.513 185.914 277.373 183.037C277.149 178.428 274.592 182.442 274.058 184.67Z" fill="black"/>
<path fill-rule="evenodd" clip-rule="evenodd" d="M259.058 245.747C257.386 246.438 255.116 252.825 257.505 253.168C260.187 253.552 259.294 247.077 259.058 245.747Z" fill="black"/>
<path fill-rule="evenodd" clip-rule="evenodd" d="M279.94 242.159C278.027 241.514 277.325 245.547 278.437 246.296C280.884 247.944 280.368 243.111 279.94 242.159Z" fill="black"/>
<path fill-rule="evenodd" clip-rule="evenodd" d="M298.08 231.17C298.104 231.706 298.128 232.241 298.153 232.773C298.129 232.237 298.105 231.703 298.08 231.17Z" fill="black"/>
<path fill-rule="evenodd" clip-rule="evenodd" d="M234.029 256.03C234.049 256.579 234.069 257.127 234.09 257.674C234.071 257.124 234.05 256.577 234.029 256.03Z" fill="black"/>
<path fill-rule="evenodd" clip-rule="evenodd" d="M267.564 232.441C267.574 232.907 267.585 233.373 267.597 233.836C267.587 233.369 267.575 232.905 267.564 232.441Z" fill="black"/>
<path fill-rule="evenodd" clip-rule="evenodd" d="M55.9307 224.427C51.9638 224.3 47.5387 222.808 43.6408 223.282C42.5676 223.413 40.0974 223.683 41.8166 225.274C42.6389 226.034 46.5753 225.641 47.7668 225.893C55.05 227.434 63.3176 228.428 70.7855 228.299C74.2814 228.239 77.8033 227.96 81.2975 227.775C84.7894 227.59 85.1327 226.173 81.2035 225.721C77.1228 225.253 72.9355 225.427 68.8346 225.422C64.5233 225.417 60.2334 224.714 55.9307 224.427Z" fill="black"/>
<path fill-rule="evenodd" clip-rule="evenodd" d="M47.2218 214.878C47.6036 215.964 47.9387 218.457 49.4018 218.62C51.4508 218.849 51.79 215.334 51.7147 214.048C51.6231 212.496 51.0642 209.918 49.1339 210.456C47.5035 210.91 47.3401 213.636 47.2218 214.878Z" fill="black"/>
<path fill-rule="evenodd" clip-rule="evenodd" d="M59.627 214.082C59.3275 212.919 59.1803 210.297 57.5341 210.208C55.6942 210.108 55.1686 212.841 55.1807 214.15C55.1929 215.393 55.6529 217.74 57.1179 218.027C59.1042 218.416 59.2817 215.411 59.627 214.082Z" fill="black"/>
<path fill-rule="evenodd" clip-rule="evenodd" d="M80.2862 216.168C80.8824 217.566 81.2767 219.492 83.1215 218.539C84.5481 217.802 84.7471 214.829 84.478 213.468C84.1991 212.058 83.6086 210.44 81.9871 211.075C80.1172 211.806 80.3061 214.629 80.2862 216.168Z" fill="black"/>
<path fill-rule="evenodd" clip-rule="evenodd" d="M64.6415 214.878C66.3999 220.204 69.6073 216.6 68.3894 212.624C67.1161 208.467 64.8032 212.504 64.6415 214.878Z" fill="black"/>
<path fill-rule="evenodd" clip-rule="evenodd" d="M73.2093 215.141C73.6977 216.079 74.2173 218.102 75.5336 217.889C77.1474 217.628 77.1993 214.524 77.0221 213.369C76.8677 212.357 76.413 210.671 75.0622 210.693C73.1104 210.725 73.2413 213.927 73.2093 215.141Z" fill="black"/>
<path fill-rule="evenodd" clip-rule="evenodd" d="M38.1322 216.164C39.4412 219.098 41.2419 216.57 40.6656 214.486C39.8108 211.395 38.2063 214.134 38.1322 216.164Z" fill="black"/>
<path fill-rule="evenodd" clip-rule="evenodd" d="M70.1912 225.426C71.6206 225.42 73.0508 225.415 74.4802 225.41C73.0496 225.141 71.619 225.036 70.1912 225.426Z" fill="black"/>
<path fill-rule="evenodd" clip-rule="evenodd" d="M41.7808 223.27C43.0209 223.279 44.2607 223.286 45.5 223.294C44.2623 222.923 43.0226 222.915 41.7808 223.27Z" fill="black"/>
<path fill-rule="evenodd" clip-rule="evenodd" d="M80.2861 216.169C80.295 215.457 80.3047 214.745 80.3132 214.034C79.9465 214.742 79.972 215.453 80.2861 216.169Z" fill="black"/>
<path fill-rule="evenodd" clip-rule="evenodd" d="M72.5071 228.284C71.9316 228.29 71.3561 228.294 70.7855 228.3C71.3626 228.294 71.9348 228.29 72.5071 228.284Z" fill="black"/>
<path fill-rule="evenodd" clip-rule="evenodd" d="M82.1711 227.775C81.5884 227.775 81.0051 227.775 80.4264 227.775C81.0116 227.775 81.5912 227.775 82.1711 227.775Z" fill="black"/>
<path fill-rule="evenodd" clip-rule="evenodd" d="M77.3922 225.487C78.2028 225.554 79.0133 225.62 79.8235 225.687C79.0129 225.62 78.2028 225.554 77.3922 225.487Z" fill="black"/>
<path fill-rule="evenodd" clip-rule="evenodd" d="M66.4336 225.417C67.234 225.419 68.0341 225.42 68.8345 225.422C68.0345 225.085 67.2344 225.075 66.4336 225.417Z" fill="black"/>
<path fill-rule="evenodd" clip-rule="evenodd" d="M73.2112 215.141C73.2303 214.399 73.2491 213.657 73.2671 212.916C73.2479 213.659 73.2296 214.4 73.2112 215.141Z" fill="black"/>
<path fill-rule="evenodd" clip-rule="evenodd" d="M84.4784 213.468C84.4827 214.192 84.487 214.915 84.4924 215.636C84.4881 214.912 84.4834 214.19 84.4784 213.468Z" fill="black"/>
<path fill-rule="evenodd" clip-rule="evenodd" d="M51.383 224.157C52.0906 224.221 52.7978 224.285 53.5046 224.349C52.797 224.285 52.0898 224.221 51.383 224.157Z" fill="black"/>
<path fill-rule="evenodd" clip-rule="evenodd" d="M38.1322 216.164C38.1553 215.532 38.178 214.899 38.2007 214.268C38.1776 214.901 38.1553 215.532 38.1322 216.164Z" fill="black"/>
<path fill-rule="evenodd" clip-rule="evenodd" d="M68.2317 228.305C67.7393 228.296 67.2469 228.287 66.7593 228.278C67.2534 228.288 67.7425 228.297 68.2317 228.305Z" fill="black"/>
<path fill-rule="evenodd" clip-rule="evenodd" d="M47.2219 214.878C47.2652 214.423 47.3086 213.968 47.3516 213.516C47.3082 213.971 47.2648 214.424 47.2219 214.878Z" fill="black"/>
<path fill-rule="evenodd" clip-rule="evenodd" d="M64.6416 214.878C64.6732 214.411 64.7052 213.944 64.7368 213.479C64.7048 213.946 64.6732 214.412 64.6416 214.878Z" fill="black"/>
<path fill-rule="evenodd" clip-rule="evenodd" d="M318.6 77.7907C320.537 77.2829 320.9 74.5632 320.589 72.8928C320.236 72.0878 319.883 71.2832 319.53 70.4781C319.668 70.1805 319.806 69.8829 319.944 69.5852C319.767 67.9274 320.219 67.207 318.313 67.8784C314.771 69.1264 314.204 77.6627 318.6 77.7907Z" fill="black"/>
<path fill-rule="evenodd" clip-rule="evenodd" d="M289.931 72.5323C288.335 72.4067 285.437 74.2634 287.025 76.0598C288.009 77.1726 291.252 76.6461 292.575 76.8786C294.329 77.1867 296.159 77.6083 295.21 74.9826C294.465 72.9206 291.803 72.4784 289.931 72.5323Z" fill="black"/>
<path fill-rule="evenodd" clip-rule="evenodd" d="M291.61 84.8825C293.23 83.5839 292.507 77.6688 290.041 78.733C287.503 79.8284 290.257 84.0289 291.61 84.8825Z" fill="black"/>
<path fill-rule="evenodd" clip-rule="evenodd" d="M320.589 72.8927C320.589 73.5151 320.59 74.1379 320.591 74.7575C320.929 74.1339 320.918 73.5131 320.589 72.8927Z" fill="black"/>
<path fill-rule="evenodd" clip-rule="evenodd" d="M318.6 77.7906C318.27 77.7813 317.939 77.7716 317.613 77.7631C317.945 77.7736 318.272 77.7821 318.6 77.7906Z" fill="black"/>
<path fill-rule="evenodd" clip-rule="evenodd" d="M118.483 248.139C118.635 250.829 121.527 248.84 121.322 247.04C120.949 243.774 119.101 247.002 118.483 248.139Z" fill="black"/>
</svg>