<svg width="361" height="242" viewBox="0 0 361 242" fill="none" xmlns="http://www.w3.org/2000/svg">
<g clip-path="url(#clip0_153_108)">
<path d="M63.9794 186.784C63.4688 185.923 61.2597 186.845 60.8536 186.064C60.4489 185.285 62.5014 184.098 63.674 181.387C63.8855 180.898 65.218 177.817 64.2315 176.867C62.3616 175.065 53.8049 182.501 50.8104 180.067C50.1532 179.533 49.6941 178.467 47.7051 176.736C46.9139 176.048 46.4354 175.737 45.9723 175.853C45.3153 176.017 45.2633 176.896 44.5587 178.626C43.5021 181.22 42.8772 181.063 42.2615 183.133C41.8045 184.669 41.9089 185.562 41.3712 185.736C40.6102 185.982 39.9097 184.353 38.9453 184.499C37.9611 184.648 37.3661 186.545 37.1782 187.965C36.8255 190.631 37.8042 192.39 38.3466 194.239C38.936 196.249 39.2859 199.306 37.9246 203.634L24.4512 241.607C27.4257 233.815 36.0384 212.455 39.6574 204.517C40.7022 202.226 41.8557 199.902 44.2243 198.985C46.5047 198.101 49.6365 198.629 53.6292 197.666C54.0956 197.554 55.3896 197.225 55.5524 196.463C55.6871 195.834 54.9259 195.483 55.0429 194.893C55.1997 194.102 56.6965 194.093 58.5359 193.18C59.8329 192.537 60.6409 191.772 61.3357 191.114C61.5452 190.916 64.6592 187.931 63.9794 186.784Z" fill="#F2F2F2"/>
<path d="M10.9707 206.775C10.4007 206.777 10.2158 208.128 9.71512 208.102C9.2162 208.076 9.22615 206.726 8.23436 205.368C8.05551 205.123 6.9284 203.58 6.17731 203.79C4.75368 204.188 5.93327 210.535 3.8753 211.303C3.42367 211.471 2.7681 211.389 1.34497 211.866C0.778803 212.056 0.488217 212.201 0.411358 212.462C0.302311 212.832 0.718873 213.111 1.3642 213.956C2.33199 215.223 2.07483 215.485 2.91256 216.384C3.53447 217.052 4.00282 217.258 3.93302 217.572C3.83427 218.017 2.83266 217.891 2.62598 218.406C2.41509 218.933 3.1743 219.772 3.81703 220.274C5.0232 221.216 6.1686 221.243 7.23262 221.511C8.38891 221.801 9.98969 222.512 11.7201 224.429L26.4644 242C23.4995 238.291 15.5041 227.9 12.6538 223.833C11.8309 222.659 11.0234 221.422 11.2567 219.994C11.4814 218.62 12.6437 217.234 13.3237 214.997C13.4031 214.735 13.6148 214.005 13.2883 213.705C13.0183 213.457 12.6263 213.73 12.3708 213.502C12.0281 213.197 12.4552 212.459 12.5383 211.293C12.5969 210.471 12.4546 209.853 12.3323 209.322C12.2954 209.162 11.7293 206.772 10.9707 206.775Z" fill="#F2F2F2"/>
<path d="M22.3409 209.328L21.9976 206.262L22.1544 206.03C22.8804 204.955 23.2505 203.905 23.2549 202.909C23.2556 202.75 23.2482 202.592 23.2408 202.43C23.2112 201.791 23.1742 200.996 23.5887 200.069C23.821 199.552 24.4738 198.356 25.4551 198.504C25.7193 198.541 25.9191 198.662 26.0708 198.805C26.093 198.769 26.1159 198.733 26.1403 198.695C26.446 198.229 26.688 198.029 26.9211 197.836C27.1002 197.688 27.2852 197.536 27.5753 197.174C27.7026 197.016 27.8017 196.877 27.8854 196.76C28.1392 196.406 28.4707 195.984 29.0554 195.991C29.68 196.021 30.0071 196.538 30.2239 196.88C30.611 197.49 30.7864 197.93 30.9025 198.221C30.9447 198.328 30.9928 198.448 31.0173 198.485C31.2185 198.781 32.8548 198.504 33.4712 198.403C34.8559 198.172 36.054 197.972 36.5476 198.846C36.9014 199.471 36.6387 200.297 35.7432 201.367C35.4642 201.7 35.1674 201.954 34.904 202.152C35.1223 202.282 35.3176 202.482 35.3969 202.796C35.5834 203.539 34.9447 204.284 33.4994 205.012C33.1405 205.195 32.6572 205.437 31.9801 205.554C31.6611 205.609 31.374 205.622 31.1283 205.63C31.1231 205.772 31.0898 205.926 31.0032 206.084C30.7494 206.551 30.221 206.773 29.4247 206.72C28.5485 206.674 27.8269 206.506 27.1905 206.36C26.6347 206.232 26.1559 206.124 25.78 206.15C25.0828 206.206 24.5455 206.764 23.915 207.488L22.3409 209.328Z" fill="#F2F2F2"/>
<path d="M23.9338 191.072L21.0558 192.182L20.7913 192.089C19.5677 191.659 18.4588 191.567 17.4941 191.816C17.3408 191.855 17.1894 191.903 17.0353 191.951C16.4243 192.142 15.6648 192.379 14.6635 192.213C14.1049 192.12 12.7825 191.791 12.6768 190.804C12.6456 190.539 12.7123 190.315 12.8112 190.132C12.7713 190.12 12.7311 190.107 12.6877 190.093C12.1591 189.915 11.9045 189.732 11.6592 189.555C11.4706 189.419 11.2762 189.279 10.8533 189.09C10.6679 189.007 10.5081 188.946 10.3738 188.895C9.96725 188.739 9.47512 188.526 9.33399 187.958C9.2042 187.346 9.6209 186.899 9.89661 186.602C10.3883 186.073 10.769 185.791 11.0216 185.605C11.114 185.537 11.2177 185.46 11.2473 185.427C11.4826 185.157 10.7999 183.644 10.5461 183.073C9.97159 181.792 9.47441 180.684 10.1939 179.984C10.7084 179.484 11.5739 179.528 12.8361 180.123C13.229 180.309 13.5491 180.532 13.8078 180.736C13.8784 180.492 14.0221 180.252 14.3056 180.096C14.977 179.727 15.8591 180.156 16.9301 181.37C17.1972 181.671 17.5546 182.077 17.8395 182.702C17.9734 182.997 18.0591 183.272 18.1286 183.507C18.2673 183.476 18.4247 183.47 18.5998 183.513C19.1152 183.641 19.464 184.095 19.6144 184.879C19.7923 185.739 19.8135 186.479 19.8332 187.132C19.8511 187.703 19.868 188.193 19.9877 188.551C20.2189 189.211 20.8949 189.589 21.755 190.016L23.9338 191.072Z" fill="#F2F2F2"/>
<path d="M22.3409 182.039L21.9976 178.972L22.1544 178.74C22.8804 177.665 23.2505 176.615 23.2549 175.619C23.2556 175.461 23.2482 175.302 23.2408 175.141C23.2112 174.501 23.1742 173.706 23.5887 172.779C23.821 172.263 24.4738 171.066 25.4551 171.214C25.7193 171.251 25.9191 171.373 26.0708 171.515C26.093 171.479 26.1159 171.444 26.1403 171.405C26.446 170.939 26.688 170.739 26.9211 170.547C27.1002 170.399 27.2852 170.246 27.5753 169.885C27.7026 169.726 27.8017 169.587 27.8854 169.47C28.1392 169.116 28.4707 168.694 29.0554 168.702C29.68 168.731 30.0071 169.248 30.2239 169.59C30.611 170.2 30.7864 170.64 30.9025 170.932C30.9447 171.038 30.9928 171.158 31.0173 171.195C31.2185 171.491 32.8548 171.214 33.4712 171.114C34.8559 170.883 36.054 170.683 36.5476 171.556C36.9014 172.181 36.6387 173.007 35.7432 174.078C35.4642 174.411 35.1674 174.664 34.904 174.862C35.1223 174.993 35.3176 175.193 35.3969 175.507C35.5834 176.25 34.9447 176.994 33.4994 177.723C33.1405 177.905 32.6572 178.148 31.9801 178.265C31.6611 178.32 31.374 178.333 31.1283 178.34C31.1231 178.482 31.0898 178.636 31.0032 178.795C30.7494 179.261 30.221 179.483 29.4247 179.43C28.5485 179.384 27.8269 179.217 27.1905 179.07C26.6347 178.943 26.1559 178.835 25.78 178.86C25.0828 178.916 24.5455 179.474 23.915 180.198L22.3409 182.039Z" fill="#F2F2F2"/>
<path d="M25.4773 241.557L24.8349 241.154L24.086 241.24C24.0741 241.171 24.0334 241.011 23.972 240.76C23.6368 239.389 22.6148 235.217 21.7622 228.647C21.1672 224.06 20.8305 219.344 20.761 214.629C20.6914 209.906 20.9149 206.33 21.094 203.456C21.2294 201.289 21.3937 199.225 21.555 197.214C21.9843 191.843 22.3891 186.769 22.0879 181.152C22.0213 179.898 21.8814 177.288 20.3569 174.51C19.4725 172.899 18.2544 171.469 16.7358 170.261L17.6801 169.074C19.3563 170.409 20.704 171.993 21.686 173.782C23.3763 176.861 23.5287 179.705 23.602 181.072C23.9084 186.788 23.4991 191.911 23.0655 197.334C22.9056 199.338 22.7413 201.393 22.6066 203.551C22.429 206.398 22.2077 209.943 22.2766 214.605C22.3447 219.264 22.6777 223.922 23.2645 228.451C24.1067 234.939 25.1139 239.049 25.4447 240.399C25.6209 241.12 25.6579 241.271 25.4773 241.557Z" fill="#F2F2F2"/>
<path d="M13.9559 172.67C13.8937 172.67 13.8308 172.668 13.7672 172.664C12.4765 172.594 11.2814 171.821 10.2142 170.367C9.71395 169.683 9.4579 168.903 8.94726 167.347C8.86807 167.107 8.48324 165.89 8.24938 164.216C8.09619 163.122 8.11544 162.664 8.33227 162.26C8.57279 161.81 8.96205 161.496 9.40016 161.284C9.38093 161.139 9.39645 160.99 9.45937 160.837C9.71764 160.205 10.4044 160.288 10.7759 160.328C10.9639 160.352 11.1985 160.383 11.4516 160.369C11.8497 160.35 12.0636 160.232 12.3877 160.054C12.6978 159.884 13.0834 159.672 13.6554 159.555C14.7833 159.32 15.7283 159.639 16.0399 159.744C17.6791 160.291 18.4872 161.566 19.4226 163.042C19.6091 163.338 20.2492 164.416 20.6718 165.893C20.9767 166.959 20.9338 167.433 20.842 167.785C20.6555 168.509 20.2152 168.924 19.097 169.839C17.9292 170.797 17.3431 171.277 16.8398 171.568C15.6684 172.245 14.9327 172.67 13.9559 172.67Z" fill="#F2F2F2"/>
<path d="M352.628 240.868C352.628 241.148 352.401 241.376 352.12 241.376H0V240.359H352.12C352.401 240.359 352.628 240.587 352.628 240.868Z" fill="#E6E6E6"/>
<path d="M250.976 80.22C250.976 80.22 232.022 82.5003 235.219 67.5095C238.416 52.5186 256.544 24.8297 256.544 24.8297L266.831 30.6005L255.02 58.5258L260.105 62.5381L250.976 80.22Z" fill="#A0616A"/>
<path d="M313.089 61.9698L310.418 83.9434L243.491 83.6156L256.933 60.2475L313.089 61.9698Z" fill="#2699EB"/>
<path d="M273.316 25.9972C277.412 20.2754 277.741 13.4941 274.05 10.8509C270.36 8.20765 264.048 10.7034 259.952 16.4252C255.856 22.1471 255.528 28.9284 259.218 31.5716C262.909 34.2149 269.22 31.7191 273.316 25.9972Z" fill="#A0616A"/>
<path d="M306.654 145.745V241.107H310.763V145.745H306.654Z" fill="#3F3D56"/>
<path d="M286.93 145.745V241.107H291.039V145.745H286.93Z" fill="#3F3D56"/>
<path d="M176.393 85.7322V241.107H180.502V85.7322H176.393Z" fill="#E6E6E6"/>
<path d="M242.551 145.745V241.107H246.66V145.745H242.551Z" fill="#3F3D56"/>
<path d="M226.826 145.745V241.107H230.935V145.745H226.826Z" fill="#3F3D56"/>
<path d="M302.956 143.69H223.603L208.381 165.288L287.341 169.996L302.956 143.69Z" fill="#3F3D56"/>
<path d="M157.653 69.7936L158.014 54.1304L110.122 57.8153L109.877 68.429L157.653 69.7936Z" fill="#A0616A"/>
<path d="M125.241 55.9439L122.95 61.4564L119.66 61.5614C119.66 61.5614 123.512 62.7413 124.582 69.7425L121.421 70.6903C121.421 70.6903 118.386 73.5232 112.711 73.2484L97.4973 71.9753L97.4388 66.6699L107.954 65.4543C107.954 65.4543 110.297 63.9124 98.6984 57.5731C98.6984 57.5731 94.8561 55.2228 98.3117 43.6168C98.7867 42.0216 100.221 40.8759 101.885 40.8399C102.803 40.82 103.663 41.1499 104.007 42.2906C104.881 45.1941 103.996 48.0886 106.398 49.901C108.801 51.7134 125.241 55.9439 125.241 55.9439Z" fill="#2F2E41"/>
<path d="M297.017 129.675C297.017 129.675 280.493 157.789 243.101 152.723C234.203 151.517 226.375 146.225 221.915 138.429C213.294 123.361 200.204 96.9776 204.448 82.0381L141.208 69.9645L136.225 54.6013L204.667 45.7079C210.721 44.9212 216.651 47.8661 219.685 53.1655L253.024 111.408L262.963 112.493L297.017 129.675Z" fill="#2F2E41"/>
<path d="M158.902 76.2055L158.001 60.5641L110.561 68.0912L111.171 78.6903L158.902 76.2055Z" fill="#A0616A"/>
<path d="M125.48 65.0092L123.64 70.6882L120.37 71.0577C120.37 71.0577 124.304 71.9237 125.934 78.8162L122.859 80.0152C122.859 80.0152 120.061 83.0832 114.383 83.266L99.1162 83.2214L98.6312 77.9379L109.015 75.88C109.015 75.88 111.226 74.1545 99.155 68.7692C99.155 68.7692 95.1362 66.7357 97.6472 54.8893C97.9923 53.261 99.3302 52.0036 100.985 51.8338C101.899 51.7401 102.783 51.9997 103.217 53.109C104.322 55.9328 103.673 58.8891 106.213 60.5023C108.753 62.1155 125.48 65.0092 125.48 65.0092Z" fill="#2F2E41"/>
<path d="M302.63 124.678C302.63 124.678 288.42 154.03 250.742 151.989C241.776 151.504 233.547 146.859 228.475 139.447C218.67 125.122 203.501 99.8771 206.529 84.6445L142.523 77.6994L136.321 62.787L203.825 48.4144C209.797 47.1431 215.944 49.6012 219.394 54.6392L257.31 110.01L267.304 110.292L302.63 124.678Z" fill="#2F2E41"/>
<path d="M259.314 0.729858L256.027 3.19613L273.285 27.0367L276.573 26.2146L259.314 0.729858Z" fill="#3F3D56"/>
<path d="M304.188 53.6708L323.091 52.8487L331.309 89.8427C331.309 89.8427 314.05 154.788 293.505 152.322C293.505 152.322 280.766 142.867 280.766 139.579C280.766 136.291 263.508 128.07 263.508 128.07L259.398 114.094L271.726 95.1863C271.726 95.1863 276.657 80.3887 293.094 72.1678L304.188 53.6708Z" fill="#2699EB"/>
<path d="M196.117 82.4439H28.0522V86.5544H110.236V241.107H114.345V86.5544H196.117V82.4439Z" fill="#E6E6E6"/>
<path d="M314.05 50.3824C326.305 50.3824 336.24 40.4447 336.24 28.186C336.24 15.9273 326.305 5.98959 314.05 5.98959C301.795 5.98959 291.861 15.9273 291.861 28.186C291.861 40.4447 301.795 50.3824 314.05 50.3824Z" fill="#A0616A"/>
<path d="M236.681 56.5481L221.183 62.7138L251.591 102.996L262.275 94.7753L236.681 56.5481Z" fill="#E6E6E6"/>
<path d="M297.203 133.824C297.203 133.824 291.45 152.033 279.122 142.929C266.795 133.824 249.074 105.873 249.074 105.873L258.577 98.8857L279.122 121.179L284.875 118.205L297.203 133.824Z" fill="#A0616A"/>
<path d="M306.243 69.7015L325.145 81.2108L297.203 142.045L279.123 117.383L306.243 69.7015Z" fill="#2699EB"/>
<path d="M256.317 106.222C260.247 103.951 260.582 97.1704 257.065 91.0758C253.547 84.9813 247.509 81.8809 243.578 84.1511C239.647 86.4212 239.313 93.2021 242.83 99.2967C246.348 105.391 252.386 108.492 256.317 106.222Z" fill="#A0616A"/>
<path d="M316.477 95.3902C322.172 76.7148 328.283 70.8047 334.708 74.5049C339.599 77.3214 341.071 83.7323 338.205 88.5949C330.899 100.99 315.845 129.389 318.981 148.211C318.981 148.211 323.912 174.518 284.464 174.518C245.016 174.518 207.212 165.475 207.212 165.475L227.758 162.187L274.481 165.525C285.157 166.288 294.154 157.151 292.728 146.541C292.681 146.19 292.625 145.836 292.56 145.478C290.217 132.591 316.477 95.3902 316.477 95.3902Z" fill="#3F3D56"/>
<path d="M305.734 18.9846C303.921 24.0617 307.904 29.3335 313.282 28.9749L313.41 28.9664C317.025 33.4864 317.124 39.8803 313.653 44.511C313.367 50.4795 314.302 56.4434 316.399 62.0382L322.292 77.7577L331.364 73.5227L335.67 85.0177L361 71.9646L345.648 37.4125L340.963 18.6669C337.63 5.33039 324.031 -2.69713 310.748 0.832045L300.558 3.53969C292.507 5.6788 287.874 14.1103 290.382 22.0559L305.734 18.9846Z" fill="#2F2E41"/>
</g>
<defs>
<clipPath id="clip0_153_108">
<rect width="361" height="242" fill="white"/>
</clipPath>
</defs>
</svg>